<?xml version="1.0" encoding="utf-8"?>
<!-- Generator: Adobe Illustrator 15.0.0, SVG Export Plug-In . SVG Version: 6.00 Build 0)  -->
<!DOCTYPE svg PUBLIC "-//W3C//DTD SVG 1.1//EN" "http://www.w3.org/Graphics/SVG/1.1/DTD/svg11.dtd">
<svg version="1.1" id="Layer_1" xmlns="http://www.w3.org/2000/svg" xmlns:xlink="http://www.w3.org/1999/xlink" x="0px" y="0px"
	 width="745.887px" height="282.672px" viewBox="0 0 745.887 282.672" enable-background="new 0 0 745.887 282.672"
	 xml:space="preserve">
<g>
	<path d="M261.733,102.46l1.26,57.403H258.3c-2.212-14.394-7.649-25.97-16.309-34.734c-8.659-8.763-18.027-13.144-28.099-13.144
		c-7.782,0-13.941,2.308-18.482,6.921c-4.54,4.615-6.81,9.928-6.81,15.938c0,3.812,0.801,7.197,2.403,10.16
		c2.212,3.979,5.76,7.917,10.644,11.812c3.585,2.793,11.864,7.746,24.834,14.857c18.161,9.904,30.407,19.26,36.74,28.064
		c6.256,8.806,9.385,18.882,9.385,30.227c0,14.395-5.054,26.775-15.164,37.148c-10.11,10.371-22.947,15.557-38.512,15.557
		c-4.884,0-9.501-0.55-13.849-1.65c-4.351-1.1-9.807-3.177-16.367-6.224c-3.663-1.694-6.677-2.539-9.042-2.539
		c-1.985,0-4.083,0.845-6.295,2.539c-2.213,1.694-4.005,4.274-5.38,7.747h-4.234V217.52h4.234
		c3.357,18.289,9.822,32.235,19.399,41.848c9.575,9.609,19.896,14.415,30.959,14.415c8.544,0,15.355-2.585,20.429-7.747
		c5.073-5.164,7.609-11.178,7.609-18.035c0-4.064-0.973-8-2.918-11.812c-1.945-3.809-4.9-7.429-8.87-10.857
		c-3.968-3.43-10.986-7.895-21.058-13.398c-14.116-7.703-24.263-14.266-30.444-19.683c-6.181-5.421-10.93-11.474-14.249-18.161
		s-4.979-14.056-4.979-22.1c0-13.715,4.54-25.398,13.619-35.05c9.081-9.652,20.524-14.479,34.334-14.479
		c5.037,0,9.92,0.678,14.648,2.033c3.587,1.015,7.955,2.899,13.106,5.651c5.148,2.751,8.755,4.126,10.814,4.126
		c1.984,0,3.548-0.678,4.693-2.031c1.143-1.355,2.212-4.614,3.204-9.78h3.436V102.46z"/>
</g>
<g>
	<path d="M155.491,4.934l-11.305,53.909c-2.028,9.397-4.347,18.558-6.957,27.483c-2.606,8.926-5.458,17.44-8.549,25.545
		c3.283,10.455,6.811,18.295,10.578,23.52c3.768,5.227,7.776,7.837,12.03,7.837c3.186,0,5.96-0.545,9.362-2.003
		c4.823-2.067,10.79-9.417,11.369-14.469l1.379,0.345l-1.034,3.445c0,13.39-4.801,23.34-7.892,29.858
		c-3.093,6.521-7.778,9.781-14.056,9.781c-6.667,0-11.936-3.17-15.796-9.515c-3.865-6.345-7.585-18.438-11.158-36.293
		c-7.825,16.094-16.302,27.746-25.432,34.97c-9.131,7.226-19.878,10.838-32.244,10.838c-18.837,0-34.514-8.133-47.022-24.4
		C6.255,129.52,0,108.938,0,84.035C0,61.603,6.423,41.99,19.273,25.193C32.122,8.401,47.336,0,64.921,0
		c13.812,0,25.091,4.934,33.836,14.8c8.741,9.865,14.901,24.663,18.478,44.396l10.577-54.262H155.491z M113.321,80.865
		c-4.347-24.779-9.95-42.605-16.81-53.47C89.65,16.533,80.717,11.1,69.703,11.1c-11.886,0-21.28,6.606-28.188,19.819
		c-6.907,13.214-10.36,31.156-10.36,53.821c0,24.55,3.262,43.312,9.782,56.289c6.521,12.978,16.015,19.467,28.477,19.467
		c11.303,0,20.188-5.668,26.662-17.002C102.548,132.161,108.297,111.285,113.321,80.865z"/>
</g>
<text transform="matrix(1 0 0 1 154.4436 75.8359)" font-family="'AmericanTypewriter'" font-size="110">gile</text>
<text transform="matrix(0.9996 0 0 1 272.7703 174.8359)" font-family="'AmericanTypewriter'" font-size="100">ysadmin</text>
</svg>
