<?xml version="1.0" encoding="utf-8"?>
<!-- Generator: Adobe Illustrator 15.0.0, SVG Export Plug-In . SVG Version: 6.00 Build 0)  -->
<!DOCTYPE svg PUBLIC "-//W3C//DTD SVG 1.1//EN" "http://www.w3.org/Graphics/SVG/1.1/DTD/svg11.dtd">
<svg version="1.1" id="Layer_1" xmlns="http://www.w3.org/2000/svg" xmlns:xlink="http://www.w3.org/1999/xlink" x="0px" y="0px"
	 width="658.467px" height="290.984px" viewBox="0 0 658.467 290.984" enable-background="new 0 0 658.467 290.984"
	 xml:space="preserve">
<g id="a_s">
	<g>
		<path fill="#1A1026" d="M265.914,107.064l1.259,57.403h-4.691c-2.212-14.393-7.649-25.97-16.31-34.734
			c-8.658-8.763-18.026-13.144-28.098-13.144c-7.782,0-13.942,2.308-18.483,6.921c-4.54,4.615-6.809,9.928-6.809,15.938
			c0,3.811,0.801,7.196,2.403,10.159c2.212,3.979,5.76,7.917,10.644,11.812c3.585,2.793,11.864,7.746,24.834,14.857
			c18.161,9.904,30.407,19.261,36.74,28.064c6.256,8.806,9.385,18.882,9.385,30.227c0,14.395-5.054,26.775-15.164,37.148
			c-10.11,10.372-22.948,15.557-38.512,15.557c-4.884,0-9.501-0.55-13.849-1.65c-4.351-1.1-9.807-3.176-16.367-6.224
			c-3.663-1.693-6.677-2.539-9.042-2.539c-1.985,0-4.083,0.846-6.295,2.539c-2.213,1.694-4.005,4.274-5.38,7.747h-4.234v-65.022
			h4.234c3.357,18.288,9.822,32.234,19.399,41.847c9.575,9.609,19.896,14.415,30.959,14.415c8.544,0,15.355-2.585,20.428-7.747
			c5.074-5.164,7.61-11.177,7.61-18.035c0-4.064-0.973-8-2.918-11.812c-1.945-3.81-4.901-7.429-8.87-10.858
			c-3.968-3.43-10.987-7.895-21.058-13.398c-14.116-7.703-24.264-14.266-30.444-19.683c-6.181-5.421-10.93-11.473-14.249-18.161
			c-3.32-6.688-4.979-14.056-4.979-22.1c0-13.715,4.54-25.398,13.619-35.05c9.08-9.652,20.524-14.479,34.334-14.479
			c5.036,0,9.92,0.679,14.648,2.033c3.587,1.015,7.955,2.899,13.106,5.651c5.148,2.751,8.755,4.126,10.814,4.126
			c1.984,0,3.548-0.679,4.693-2.031c1.143-1.355,2.212-4.614,3.204-9.78h3.436V107.064z"/>
	</g>
	<g>
		<path fill="#1A1026" d="M159.672,9.538l-11.304,53.909c-2.029,9.396-4.347,18.558-6.957,27.482
			c-2.606,8.926-5.458,17.44-8.549,25.545c3.283,10.455,6.81,18.295,10.578,23.521c3.768,5.227,7.775,7.838,12.03,7.838
			c3.186,0,5.96-0.546,9.362-2.004c4.823-2.067,10.79-9.417,11.369-14.47l1.379,0.346l-1.035,3.444
			c0,13.391-4.8,23.341-7.891,29.858c-3.093,6.522-7.778,9.781-14.056,9.781c-6.667,0-11.936-3.17-15.796-9.515
			c-3.865-6.345-7.586-18.438-11.158-36.293c-7.825,16.095-16.303,27.746-25.433,34.971s-19.877,10.837-32.243,10.837
			c-18.838,0-34.514-8.132-47.022-24.4C10.435,134.124,4.18,113.541,4.18,88.639c0-22.432,6.423-42.045,19.272-58.841
			C36.302,13.005,51.517,4.604,69.102,4.604c13.812,0,25.091,4.935,33.836,14.8c8.741,9.865,14.9,24.663,18.478,44.396
			l10.577-54.262H159.672z M117.501,85.469c-4.347-24.779-9.951-42.604-16.81-53.47C93.83,21.136,84.897,15.704,73.883,15.704
			c-11.885,0-21.279,6.605-28.187,19.818c-6.907,13.214-10.36,31.156-10.36,53.821c0,24.55,3.262,43.312,9.782,56.289
			C51.64,158.611,61.133,165.1,73.595,165.1c11.303,0,20.188-5.668,26.661-17.002C106.729,136.765,112.478,115.889,117.501,85.469z"
			/>
	</g>
</g>
<g id="Courier" display="none">
	<g display="inline">
		<path fill="#1A171B" d="M205.783,51.682c1.832,0,3.17,0.318,4.011,0.955c0.843,0.636,1.264,1.646,1.264,3.027
			c0,1.31-0.394,2.292-1.179,2.945c-0.785,0.655-1.963,0.981-3.533,0.981h-22.719v18.734c0,6.135,0.793,10.174,2.384,12.118
			c1.59,1.943,4.311,2.916,8.162,2.916c3.402,0,7.479-0.99,12.229-2.972c4.748-1.982,7.685-2.975,8.806-2.975
			c1.046,0,1.937,0.375,2.665,1.122c0.73,0.75,1.094,1.665,1.094,2.749c0,1.233-0.458,2.308-1.375,3.226
			c-0.917,0.917-2.477,1.805-4.684,2.664c-3.666,1.459-6.964,2.525-9.9,3.198c-2.936,0.673-5.692,1.01-8.273,1.01
			c-4.375,0-8.049-0.702-11.021-2.104c-2.973-1.403-5.188-3.485-6.647-6.256c-0.748-1.307-1.282-2.858-1.599-4.653
			s-0.477-4.562-0.477-8.303v-1.739V59.591h-9.537c-1.57,0-2.711-0.309-3.421-0.925c-0.711-0.617-1.066-1.617-1.066-3.002
			c0-1.533,0.485-2.58,1.458-3.141c0.974-0.561,3.049-0.842,6.228-0.842h6.338V40.183V37.21c0-1.607,0.345-2.796,1.038-3.562
			c0.69-0.766,1.767-1.149,3.225-1.149c1.646,0,2.785,0.468,3.422,1.402c0.636,0.936,0.953,3.066,0.953,6.396v11.386H205.783z"/>
		<path fill="#1A171B" d="M266.2,93.248c-3.066,2.767-6.404,4.88-10.012,6.338c-3.61,1.458-7.321,2.188-11.135,2.188
			c-5.574,0-10.069-1.551-13.49-4.655c-3.422-3.104-5.132-7.143-5.132-12.115c0-5.909,2.271-10.49,6.814-13.743
			c4.543-3.254,10.929-4.881,19.156-4.881c2.167,0,4.355,0.141,6.562,0.421c2.206,0.281,4.468,0.721,6.786,1.319v-0.394
			c0-4.3-1.027-7.479-3.084-9.536c-2.057-2.056-5.254-3.085-9.592-3.085c-2.917,0-6.171,0.785-9.76,2.355
			c-3.589,1.571-5.965,2.355-7.124,2.355c-1.085,0-1.982-0.438-2.693-1.318c-0.711-0.877-1.064-2.009-1.064-3.394
			c0-2.206,2.065-4.076,6.198-5.609c4.132-1.533,9.414-2.301,15.847-2.301c6.582,0,11.555,1.675,14.92,5.021
			c3.366,3.347,5.048,8.292,5.048,14.837v25.41h2.75c2.654,0,4.431,0.281,5.329,0.841c0.896,0.562,1.345,1.571,1.345,3.03
			c0,1.345-0.374,2.354-1.121,3.027c-0.749,0.674-1.871,1.011-3.365,1.011h-8.808c-1.047,0-1.907-0.318-2.58-0.955
			c-0.673-0.635-1.122-1.551-1.346-2.748L266.2,93.248z M265.751,75.577c-2.057-0.672-4.048-1.168-5.973-1.486
			c-1.926-0.316-3.842-0.477-5.749-0.477c-5.76,0-10.303,0.974-13.631,2.918c-3.329,1.944-4.992,4.562-4.992,7.853
			c0,2.543,1.037,4.637,3.112,6.282c2.075,1.646,4.721,2.468,7.938,2.468c4.748,0,9.152-1.241,13.21-3.729
			c4.058-2.487,6.085-5.077,6.085-7.769V75.577z"/>
		<path fill="#1A171B" d="M312.919,35.022h-9.535c-3.628,0-5.899-0.29-6.816-0.87c-0.917-0.578-1.374-1.635-1.374-3.168
			c0-1.346,0.383-2.355,1.149-3.029c0.767-0.672,1.88-1.01,3.338-1.01h18.511c1.01,0,1.795,0.206,2.355,0.616
			c0.561,0.413,0.842,0.975,0.842,1.684v63.217h17.613c1.421,0,2.459,0.309,3.112,0.925c0.653,0.617,0.982,1.6,0.982,2.946
			c0,1.533-0.318,2.588-0.954,3.167c-0.636,0.582-1.832,0.871-3.59,0.871h-41.396c-1.458,0-2.572-0.337-3.338-1.011
			c-0.768-0.673-1.15-1.683-1.15-3.027c0-1.311,0.394-2.281,1.179-2.917c0.784-0.635,1.963-0.954,3.533-0.954h15.537V35.022H312.919
			z"/>
		<path fill="#1A171B" d="M389.969,93.248c-3.067,2.767-6.405,4.88-10.014,6.338s-7.319,2.188-11.135,2.188
			c-5.573,0-10.069-1.551-13.49-4.655c-3.422-3.104-5.133-7.143-5.133-12.115c0-5.909,2.273-10.49,6.816-13.743
			c4.543-3.254,10.929-4.881,19.155-4.881c2.168,0,4.355,0.141,6.562,0.421c2.207,0.281,4.469,0.721,6.788,1.319v-0.394
			c0-4.3-1.029-7.479-3.085-9.536c-2.057-2.056-5.255-3.085-9.592-3.085c-2.917,0-6.17,0.785-9.762,2.355
			c-3.589,1.571-5.965,2.355-7.122,2.355c-1.087,0-1.983-0.438-2.693-1.318c-0.71-0.877-1.065-2.009-1.065-3.394
			c0-2.206,2.066-4.076,6.198-5.609c4.131-1.533,9.414-2.301,15.846-2.301c6.582,0,11.557,1.675,14.922,5.021
			c3.364,3.347,5.048,8.292,5.048,14.837v25.41h2.749c2.655,0,4.432,0.281,5.327,0.841c0.898,0.562,1.349,1.571,1.349,3.03
			c0,1.345-0.374,2.354-1.123,3.027c-0.748,0.674-1.869,1.011-3.365,1.011h-8.807c-1.047,0-1.906-0.318-2.58-0.955
			c-0.674-0.635-1.122-1.551-1.346-2.748L389.969,93.248z M389.519,75.577c-2.057-0.672-4.05-1.168-5.974-1.486
			c-1.929-0.316-3.845-0.477-5.75-0.477c-5.76,0-10.303,0.974-13.631,2.918c-3.329,1.944-4.992,4.562-4.992,7.853
			c0,2.543,1.038,4.637,3.112,6.282c2.076,1.646,4.722,2.468,7.938,2.468c4.75,0,9.151-1.241,13.211-3.729
			c4.058-2.487,6.086-5.077,6.086-7.769V75.577z"/>
		<path fill="#1A171B" d="M425.137,92.461V56.506h-1.066c-2.543,0-4.291-0.3-5.245-0.897c-0.95-0.597-1.429-1.646-1.429-3.141
			c0-1.383,0.395-2.384,1.179-3c0.786-0.618,2.057-0.926,3.813-0.926h2.637h5.386c1.011,0,1.793,0.206,2.354,0.617
			c0.562,0.413,0.843,0.974,0.843,1.684v3.813c2.729-2.542,5.432-4.423,8.104-5.638s5.448-1.823,8.328-1.823
			c5.646,0,10.09,1.76,13.324,5.273c3.231,3.515,4.852,8.377,4.852,14.584v25.41h2.637c1.869,0,3.215,0.309,4.039,0.925
			c0.821,0.617,1.231,1.6,1.231,2.946c0,1.458-0.438,2.495-1.314,3.111c-0.88,0.618-2.441,0.928-4.687,0.928h-12.396
			c-2.396,0-3.926-0.28-4.598-0.843c-0.674-0.561-1.012-1.625-1.012-3.195c0-1.458,0.395-2.469,1.179-3.03
			c0.786-0.561,2.262-0.841,4.431-0.841h1.964V69.127c0-4.375-0.99-7.713-2.974-10.013c-1.981-2.3-4.861-3.45-8.639-3.45
			c-3.813,0-7.18,1.291-10.096,3.872c-2.918,2.58-4.375,5.775-4.375,9.591v23.334h1.962c2.243,0,3.758,0.281,4.545,0.841
			c0.784,0.561,1.177,1.571,1.177,3.03c0,1.569-0.338,2.636-1.01,3.194c-0.672,0.563-2.316,0.844-4.936,0.844h-10.21h-3.027
			c-1.537,0-2.686-0.328-3.451-0.982c-0.765-0.654-1.148-1.673-1.148-3.056c0-1.496,0.438-2.516,1.315-3.058
			c0.88-0.543,2.59-0.813,5.135-0.813H425.137z"/>
		<path fill="#1A171B" d="M523.371,51.682c1.831,0,3.17,0.318,4.011,0.955c0.843,0.636,1.265,1.646,1.265,3.027
			c0,1.31-0.394,2.292-1.18,2.945c-0.785,0.655-1.963,0.981-3.533,0.981h-22.719v18.734c0,6.135,0.794,10.174,2.387,12.118
			c1.586,1.943,4.307,2.916,8.158,2.916c3.404,0,7.479-0.99,12.229-2.972c4.75-1.982,7.686-2.975,8.806-2.975
			c1.048,0,1.938,0.375,2.666,1.122c0.729,0.75,1.094,1.665,1.094,2.749c0,1.233-0.458,2.308-1.374,3.226
			c-0.916,0.917-2.479,1.805-4.685,2.664c-3.666,1.459-6.966,2.525-9.898,3.198c-2.938,0.673-5.695,1.01-8.274,1.01
			c-4.374,0-8.049-0.702-11.022-2.104c-2.973-1.403-5.188-3.485-6.646-6.256c-0.75-1.307-1.279-2.858-1.599-4.653
			c-0.32-1.795-0.478-4.562-0.478-8.303v-1.739V59.591h-9.535c-1.569,0-2.714-0.309-3.424-0.925
			c-0.709-0.617-1.065-1.617-1.065-3.002c0-1.533,0.486-2.58,1.46-3.141c0.973-0.561,3.049-0.842,6.228-0.842h6.338V40.183V37.21
			c0-1.607,0.347-2.796,1.037-3.562c0.691-0.766,1.768-1.149,3.228-1.149c1.645,0,2.784,0.468,3.421,1.402
			c0.635,0.936,0.953,3.066,0.953,6.396v11.386H523.371z"/>
		<path fill="#1A171B" d="M582.748,93.248c-3.067,2.767-6.404,4.88-10.012,6.338c-3.61,1.458-7.322,2.188-11.136,2.188
			c-5.571,0-10.067-1.551-13.488-4.655c-3.424-3.104-5.135-7.143-5.135-12.115c0-5.909,2.271-10.49,6.814-13.743
			c4.545-3.254,10.932-4.881,19.156-4.881c2.17,0,4.357,0.141,6.562,0.421c2.207,0.281,4.469,0.721,6.786,1.319v-0.394
			c0-4.3-1.026-7.479-3.085-9.536c-2.057-2.056-5.254-3.085-9.592-3.085c-2.915,0-6.171,0.785-9.761,2.355
			c-3.59,1.571-5.964,2.355-7.122,2.355c-1.085,0-1.982-0.438-2.692-1.318c-0.71-0.877-1.066-2.009-1.066-3.394
			c0-2.206,2.067-4.076,6.201-5.609c4.129-1.533,9.413-2.301,15.846-2.301c6.58,0,11.555,1.675,14.919,5.021
			c3.365,3.347,5.047,8.292,5.047,14.837v25.41h2.749c2.655,0,4.434,0.281,5.329,0.841c0.899,0.562,1.349,1.571,1.349,3.03
			c0,1.345-0.375,2.354-1.121,3.027c-0.75,0.674-1.872,1.011-3.368,1.011h-8.803c-1.049,0-1.91-0.318-2.585-0.955
			c-0.673-0.635-1.119-1.551-1.346-2.748L582.748,93.248z M582.298,75.577c-2.055-0.672-4.047-1.168-5.975-1.486
			c-1.925-0.316-3.842-0.477-5.748-0.477c-5.761,0-10.302,0.974-13.631,2.918c-3.327,1.944-4.994,4.562-4.994,7.853
			c0,2.543,1.038,4.637,3.115,6.282c2.074,1.646,4.721,2.468,7.938,2.468c4.75,0,9.152-1.241,13.209-3.729
			c4.06-2.487,6.086-5.077,6.086-7.769V75.577z"/>
	</g>
	<g display="inline">
		<path fill="#1A171B" d="M303.753,191.975h2.467c2.791,0,4.684,0.297,5.68,0.89c0.994,0.592,1.491,1.672,1.491,3.239
			c0,1.34-0.394,2.354-1.176,3.041c-0.784,0.688-1.921,1.033-3.414,1.033h-26.446c-1.799,0-3.05-0.307-3.758-0.918
			s-1.062-1.664-1.062-3.156c0-1.377,0.373-2.41,1.118-3.098c0.746-0.688,1.865-1.031,3.355-1.031h12.449l9.294-18.299
			l-21.055-41.249c-2.524,0-4.254-0.306-5.191-0.917c-0.938-0.613-1.405-1.683-1.405-3.213c0-1.339,0.381-2.343,1.146-3.012
			s1.912-1.004,3.441-1.004h16.006c2.143,0,3.576,0.296,4.302,0.889c0.727,0.593,1.091,1.635,1.091,3.126
			c0,1.53-0.479,2.6-1.435,3.213c-0.956,0.611-2.716,0.917-5.278,0.917h-2.122l15.547,31.61l15.833-31.61h-2.237
			c-2.639,0-4.456-0.306-5.449-0.917c-0.996-0.613-1.492-1.683-1.492-3.213c0-1.492,0.363-2.534,1.091-3.126
			c0.726-0.593,2.18-0.889,4.359-0.889h14.169c1.568,0,2.726,0.334,3.472,1.004c0.745,0.669,1.117,1.673,1.117,3.012
			c0,1.453-0.421,2.485-1.262,3.098s-2.333,0.956-4.474,1.032L303.753,191.975z"/>
		<path fill="#1A171B" d="M344.041,173.159v-10.211c0-1.685,0.315-2.888,0.946-3.615s1.655-1.09,3.069-1.09
			c1.567,0,2.811,1.071,3.728,3.213c0.612,1.301,1.167,2.274,1.665,2.926c1.606,2.066,3.978,3.721,7.113,4.963
			c3.135,1.242,6.597,1.863,10.383,1.863c4.053,0,7.306-0.822,9.752-2.467c2.447-1.646,3.672-3.806,3.672-6.482
			c0-2.715-0.984-4.646-2.955-5.793c-1.97-1.148-5.344-1.723-10.125-1.723h-3.153c-7.802,0-13.749-1.355-17.842-4.072
			c-4.094-2.715-6.139-6.654-6.139-11.818c0-5.048,1.999-8.968,5.996-11.76c3.995-2.792,9.609-4.188,16.837-4.188
			c2.945,0,5.946,0.411,9.007,1.233c3.06,0.822,4.665,1.233,4.818,1.233c0.42,0,1.224-0.373,2.409-1.119
			c1.185-0.746,2.352-1.119,3.5-1.119c1.299,0,2.266,0.479,2.896,1.434c0.633,0.956,0.947,2.391,0.947,4.303v6.712
			c0,2.025-0.308,3.489-0.918,4.389c-0.612,0.898-1.588,1.347-2.926,1.347c-1.148,0-2.563-0.974-4.245-2.925
			c-1.187-1.338-2.161-2.351-2.926-3.04c-2.029-1.873-4.188-3.222-6.482-4.044c-2.295-0.822-4.992-1.232-8.089-1.232
			c-3.595,0-6.492,0.794-8.69,2.38c-2.2,1.587-3.298,3.604-3.298,6.053c0,2.409,1.126,4.129,3.385,5.163
			c2.256,1.033,7.113,1.625,14.57,1.777c7.955,0.19,13.77,1.575,17.44,4.159c3.672,2.58,5.506,6.568,5.506,11.961
			c0,5.164-2.027,9.293-6.081,12.394c-4.053,3.098-9.523,4.645-16.406,4.645c-2.18,0-4.608-0.198-7.285-0.602
			c-2.677-0.402-6.044-1.08-10.097-2.037c-1.339,0.879-2.486,1.539-3.441,1.979c-0.956,0.438-1.761,0.659-2.409,0.659
			c-1.34,0-2.362-0.467-3.069-1.405C344.394,176.266,344.041,174.918,344.041,173.159z"/>
		<path fill="#1A171B" d="M443.337,127.494c1.873,0,3.239,0.324,4.102,0.975c0.86,0.651,1.29,1.684,1.29,3.099
			c0,1.339-0.401,2.342-1.205,3.012c-0.803,0.67-2.008,1.004-3.614,1.004h-23.232v19.16c0,6.272,0.812,10.403,2.438,12.393
			c1.625,1.988,4.408,2.982,8.349,2.982c3.479,0,7.646-1.015,12.505-3.041c4.855-2.025,7.858-3.039,9.007-3.039
			c1.071,0,1.979,0.381,2.725,1.146c0.746,0.766,1.119,1.701,1.119,2.812c0,1.264-0.469,2.362-1.405,3.299
			c-0.938,0.938-2.533,1.846-4.791,2.725c-3.747,1.492-7.122,2.58-10.124,3.271c-3.003,0.688-5.823,1.031-8.462,1.031
			c-4.475,0-8.231-0.718-11.272-2.152c-3.039-1.435-5.307-3.564-6.797-6.396c-0.766-1.34-1.311-2.926-1.636-4.762
			c-0.324-1.836-0.486-4.666-0.486-8.49v-1.778v-19.16h-9.753c-1.606,0-2.773-0.315-3.499-0.946
			c-0.729-0.631-1.092-1.654-1.092-3.068c0-1.567,0.496-2.64,1.491-3.213s3.117-0.86,6.368-0.86h6.483v-11.761v-3.041
			c0-1.645,0.352-2.858,1.061-3.643c0.707-0.785,1.809-1.176,3.298-1.176c1.684,0,2.85,0.478,3.5,1.435
			c0.649,0.956,0.976,3.137,0.976,6.54v11.646L443.337,127.494L443.337,127.494z"/>
		<path fill="#1A171B" d="M469.877,153.309c0.307,5.506,2.17,9.765,5.595,12.765c3.422,3.002,8.098,4.504,14.024,4.504
			c4.476,0,9.351-1.195,14.63-3.586c5.276-2.392,8.471-3.586,9.579-3.586c1.146,0,2.104,0.364,2.868,1.092
			c0.765,0.727,1.147,1.625,1.147,2.694c0,1.109-0.401,2.123-1.204,3.041c-0.805,0.918-2.085,1.816-3.845,2.695
			c-3.824,1.875-7.772,3.309-11.847,4.303c-4.073,0.994-8.118,1.492-12.133,1.492c-8.72,0-15.699-2.514-20.938-7.545
			c-5.239-5.027-7.859-11.693-7.859-19.99c0-8.453,2.772-15.299,8.319-20.539c5.545-5.238,12.771-7.857,21.684-7.857
			c8.069,0,14.762,2.446,20.079,7.343c5.315,4.896,7.974,10.822,7.974,17.785c0,2.139-0.448,3.572-1.348,4.301
			c-0.899,0.728-3.338,1.09-7.314,1.09h-0.859L469.877,153.309L469.877,153.309z M470.165,145.795h37.346
			c-0.573-4.553-2.477-8.214-5.708-10.986c-3.232-2.772-7.198-4.16-11.903-4.16c-5.087,0-9.37,1.339-12.849,4.017
			C473.568,137.343,471.273,141.051,470.165,145.795z"/>
		<path fill="#1A171B" d="M580.939,145.334c0-5.392-0.485-9.035-1.45-10.928c-0.969-1.893-2.629-2.839-4.983-2.839
			c-2.81,0-5.041,1.224-6.693,3.671c-1.649,2.447-2.477,5.812-2.477,10.096V169.2h1.032c2.334,0,3.893,0.276,4.677,0.832
			c0.783,0.555,1.176,1.598,1.176,3.127c0,1.377-0.324,2.409-0.976,3.098c-0.65,0.688-1.645,1.033-2.982,1.033h-7.286
			c-1.644,0-2.764-0.383-3.354-1.148c-0.594-0.764-0.891-2.41-0.891-4.934v-1.664v-24.209v-4.474c0-2.869-0.644-5.135-1.934-6.799
			c-1.292-1.663-3.058-2.495-5.298-2.495c-1.709,0-3.276,0.507-4.699,1.52c-1.423,1.014-2.646,2.515-3.673,4.503v31.61h2.121
			c2.296,0,3.845,0.286,4.647,0.86c0.803,0.572,1.204,1.605,1.204,3.099c0,1.567-0.324,2.646-0.975,3.239
			c-0.651,0.595-1.895,0.892-3.729,0.892h-15.35c-1.501,0-2.605-0.336-3.318-1.004c-0.71-0.672-1.065-1.713-1.065-3.127
			c0-1.529,0.448-2.572,1.349-3.127c0.897-0.556,2.646-0.832,5.249-0.832h1.146v-36.772h-1.033c-2.678,0-4.502-0.306-5.479-0.917
			c-0.976-0.613-1.463-1.683-1.463-3.213c0-1.339,0.386-2.343,1.154-3.012s1.921-1.004,3.46-1.004h8.825
			c1.277,0,2.119,0.22,2.525,0.659c0.408,0.439,0.651,1.367,0.729,2.782c1.562-1.682,3.234-2.926,5.021-3.729
			c1.788-0.804,3.805-1.204,6.049-1.204c2.662,0,4.857,0.583,6.591,1.749c1.729,1.167,3.015,2.936,3.852,5.307
			c1.606-2.41,3.461-4.188,5.563-5.335c2.104-1.147,4.514-1.721,7.229-1.721c4.933,0,8.537,1.604,10.813,4.817
			c2.274,3.213,3.413,8.415,3.413,15.604V169.2h0.918c2.37,0,3.958,0.286,4.762,0.86c0.803,0.572,1.203,1.605,1.203,3.099
			c0,1.377-0.344,2.409-1.032,3.098c-0.688,0.688-1.7,1.033-3.04,1.033h-6.995c-1.55,0-2.692-0.459-3.43-1.379
			c-0.737-0.918-1.105-2.369-1.105-4.357v-26.22H580.939z"/>
		<path fill="#1A171B" d="M605.264,173.159v-10.211c0-1.685,0.314-2.888,0.945-3.615c0.632-0.728,1.653-1.09,3.069-1.09
			c1.567,0,2.812,1.071,3.729,3.213c0.61,1.301,1.168,2.274,1.663,2.926c1.606,2.066,3.979,3.721,7.113,4.963
			c3.138,1.242,6.598,1.863,10.384,1.863c4.055,0,7.305-0.822,9.753-2.467c2.447-1.646,3.671-3.806,3.671-6.482
			c0-2.715-0.984-4.646-2.953-5.793c-1.97-1.148-5.346-1.723-10.126-1.723h-3.155c-7.802,0-13.748-1.355-17.842-4.072
			c-4.092-2.715-6.138-6.654-6.138-11.818c0-5.048,1.997-8.968,5.994-11.76s9.609-4.188,16.839-4.188
			c2.944,0,5.945,0.411,9.006,1.233c3.06,0.822,4.665,1.233,4.818,1.233c0.419,0,1.225-0.373,2.408-1.119
			c1.188-0.746,2.354-1.119,3.501-1.119c1.299,0,2.267,0.479,2.896,1.434c0.631,0.956,0.944,2.391,0.944,4.303v6.712
			c0,2.025-0.305,3.489-0.917,4.389c-0.61,0.898-1.587,1.347-2.925,1.347c-1.147,0-2.562-0.974-4.245-2.925
			c-1.187-1.338-2.162-2.351-2.927-3.04c-2.027-1.873-4.188-3.222-6.482-4.044c-2.294-0.822-4.989-1.232-8.089-1.232
			c-3.596,0-6.491,0.794-8.689,2.38c-2.2,1.587-3.299,3.604-3.299,6.053c0,2.409,1.128,4.129,3.385,5.163
			c2.256,1.033,7.112,1.625,14.571,1.777c7.953,0.19,13.768,1.575,17.438,4.159c3.671,2.58,5.507,6.568,5.507,11.961
			c0,5.164-2.026,9.293-6.082,12.394c-4.052,3.098-9.521,4.645-16.404,4.645c-2.181,0-4.608-0.198-7.287-0.602
			c-2.677-0.402-6.042-1.08-10.097-2.037c-1.339,0.879-2.484,1.539-3.441,1.979c-0.956,0.438-1.759,0.659-2.409,0.659
			c-1.338,0-2.361-0.467-3.069-1.405C605.618,176.266,605.264,174.918,605.264,173.159z"/>
	</g>
</g>
<g id="Courier__x28_better_kerning_x29_">
	<g>
		<path fill="#1A1026" d="M205.783,51.682c1.832,0,3.17,0.318,4.011,0.955c0.843,0.636,1.264,1.646,1.264,3.027
			c0,1.31-0.394,2.292-1.179,2.945c-0.785,0.655-1.963,0.981-3.533,0.981h-22.719v18.734c0,6.135,0.793,10.174,2.384,12.118
			c1.59,1.943,4.311,2.916,8.162,2.916c3.402,0,7.479-0.99,12.229-2.972c4.748-1.982,7.685-2.975,8.806-2.975
			c1.046,0,1.937,0.375,2.665,1.122c0.73,0.75,1.094,1.665,1.094,2.749c0,1.233-0.458,2.308-1.375,3.226
			c-0.917,0.917-2.477,1.805-4.684,2.664c-3.666,1.459-6.964,2.525-9.9,3.198c-2.936,0.673-5.692,1.01-8.273,1.01
			c-4.375,0-8.049-0.702-11.021-2.104c-2.973-1.403-5.188-3.485-6.647-6.256c-0.748-1.307-1.282-2.858-1.599-4.653
			s-0.477-4.562-0.477-8.303v-1.739V59.591h-9.537c-1.57,0-2.711-0.309-3.421-0.925c-0.711-0.617-1.066-1.617-1.066-3.002
			c0-1.533,0.485-2.58,1.458-3.141c0.974-0.561,3.049-0.842,6.228-0.842h6.338V40.183V37.21c0-1.607,0.345-2.796,1.038-3.562
			c0.69-0.766,1.767-1.149,3.225-1.149c1.646,0,2.785,0.468,3.422,1.402c0.636,0.936,0.953,3.066,0.953,6.396v11.386H205.783z"/>
		<path fill="#1A1026" d="M264.2,93.248c-3.066,2.767-6.404,4.88-10.012,6.338c-3.61,1.458-7.321,2.188-11.135,2.188
			c-5.574,0-10.069-1.551-13.49-4.655c-3.422-3.104-5.132-7.143-5.132-12.115c0-5.909,2.271-10.49,6.814-13.743
			c4.543-3.254,10.929-4.881,19.156-4.881c2.167,0,4.355,0.141,6.562,0.421c2.206,0.281,4.468,0.721,6.786,1.319v-0.394
			c0-4.3-1.027-7.479-3.084-9.536c-2.057-2.056-5.254-3.085-9.592-3.085c-2.917,0-6.171,0.785-9.76,2.355
			c-3.589,1.571-5.965,2.355-7.124,2.355c-1.085,0-1.982-0.438-2.693-1.318c-0.711-0.877-1.064-2.009-1.064-3.394
			c0-2.206,2.065-4.076,6.198-5.609c4.132-1.533,9.414-2.301,15.847-2.301c6.582,0,11.555,1.675,14.92,5.021
			c3.366,3.347,5.048,8.292,5.048,14.837v25.41h2.75c2.654,0,4.431,0.281,5.329,0.841c0.896,0.562,1.345,1.571,1.345,3.03
			c0,1.345-0.374,2.354-1.121,3.027c-0.749,0.674-1.871,1.011-3.365,1.011h-8.808c-1.047,0-1.907-0.318-2.58-0.955
			c-0.673-0.635-1.122-1.551-1.346-2.748L264.2,93.248z M263.751,75.577c-2.057-0.672-4.048-1.168-5.973-1.486
			c-1.926-0.316-3.842-0.477-5.749-0.477c-5.76,0-10.303,0.974-13.631,2.918c-3.329,1.944-4.992,4.562-4.992,7.853
			c0,2.543,1.037,4.637,3.112,6.282c2.075,1.646,4.721,2.468,7.938,2.468c4.748,0,9.152-1.241,13.21-3.729
			c4.058-2.487,6.085-5.077,6.085-7.769V75.577z"/>
		<path fill="#1A1026" d="M305.586,35.022h-9.536c-3.628,0-5.898-0.29-6.815-0.87c-0.917-0.578-1.374-1.635-1.374-3.168
			c0-1.346,0.383-2.355,1.149-3.029c0.767-0.672,1.88-1.01,3.338-1.01h18.511c1.01,0,1.795,0.206,2.355,0.616
			c0.561,0.413,0.842,0.975,0.842,1.684v63.217h17.613c1.421,0,2.459,0.309,3.112,0.925c0.653,0.617,0.982,1.6,0.982,2.946
			c0,1.533-0.318,2.588-0.954,3.167c-0.636,0.582-1.832,0.871-3.59,0.871h-41.396c-1.458,0-2.572-0.337-3.338-1.011
			c-0.768-0.673-1.15-1.683-1.15-3.027c0-1.311,0.394-2.281,1.179-2.917c0.784-0.635,1.963-0.954,3.533-0.954h15.538L305.586,35.022
			L305.586,35.022z"/>
		<path fill="#1A1026" d="M379.302,93.248c-3.066,2.767-6.405,4.88-10.013,6.338c-3.608,1.458-7.319,2.188-11.135,2.188
			c-5.573,0-10.068-1.551-13.49-4.655s-5.133-7.143-5.133-12.115c0-5.909,2.273-10.49,6.816-13.743
			c4.543-3.254,10.929-4.881,19.155-4.881c2.168,0,4.355,0.141,6.562,0.421c2.207,0.281,4.469,0.721,6.788,1.319v-0.394
			c0-4.3-1.029-7.479-3.084-9.536c-2.057-2.056-5.255-3.085-9.592-3.085c-2.917,0-6.17,0.785-9.762,2.355
			c-3.589,1.571-5.965,2.355-7.122,2.355c-1.087,0-1.983-0.438-2.693-1.318c-0.71-0.877-1.065-2.009-1.065-3.394
			c0-2.206,2.066-4.076,6.198-5.609c4.131-1.533,9.414-2.301,15.846-2.301c6.582,0,11.557,1.675,14.921,5.021
			c3.365,3.347,5.048,8.292,5.048,14.837v25.41h2.75c2.655,0,4.432,0.281,5.327,0.841c0.898,0.562,1.349,1.571,1.349,3.03
			c0,1.345-0.375,2.354-1.123,3.027c-0.748,0.674-1.869,1.011-3.365,1.011h-8.807c-1.047,0-1.906-0.318-2.58-0.955
			c-0.674-0.635-1.123-1.551-1.346-2.748L379.302,93.248z M378.852,75.577c-2.057-0.672-4.049-1.168-5.973-1.486
			c-1.929-0.316-3.845-0.477-5.75-0.477c-5.76,0-10.303,0.974-13.631,2.918c-3.329,1.944-4.992,4.562-4.992,7.853
			c0,2.543,1.038,4.637,3.112,6.282c2.076,1.646,4.722,2.468,7.938,2.468c4.75,0,9.151-1.241,13.211-3.729
			c4.058-2.487,6.085-5.077,6.085-7.769V75.577z"/>
		<path fill="#1A1026" d="M410.471,92.461V56.506h-1.066c-2.543,0-4.291-0.3-5.246-0.897c-0.951-0.597-1.428-1.646-1.428-3.141
			c0-1.383,0.395-2.384,1.178-3c0.787-0.618,2.058-0.926,3.814-0.926h2.637h5.385c1.011,0,1.793,0.206,2.355,0.617
			c0.561,0.413,0.842,0.974,0.842,1.684v3.813c2.729-2.542,5.432-4.423,8.105-5.638c2.672-1.215,5.448-1.823,8.328-1.823
			c5.646,0,10.09,1.76,13.323,5.273c3.232,3.515,4.853,8.377,4.853,14.584v25.41h2.637c1.869,0,3.215,0.309,4.039,0.925
			c0.82,0.617,1.232,1.6,1.232,2.946c0,1.458-0.439,2.495-1.316,3.111c-0.879,0.618-2.441,0.928-4.687,0.928h-12.396
			c-2.395,0-3.926-0.28-4.598-0.843c-0.675-0.561-1.013-1.625-1.013-3.195c0-1.458,0.396-2.469,1.179-3.03
			c0.787-0.561,2.262-0.841,4.432-0.841h1.963V69.127c0-4.375-0.99-7.713-2.973-10.013s-4.861-3.45-8.64-3.45
			c-3.813,0-7.18,1.291-10.096,3.872c-2.918,2.58-4.375,5.775-4.375,9.591v23.334h1.963c2.242,0,3.758,0.281,4.545,0.841
			c0.783,0.561,1.177,1.571,1.177,3.03c0,1.569-0.339,2.636-1.011,3.194c-0.672,0.563-2.315,0.844-4.936,0.844H410.47h-3.027
			c-1.537,0-2.686-0.328-3.451-0.982c-0.765-0.654-1.149-1.673-1.149-3.056c0-1.496,0.438-2.516,1.315-3.058
			c0.882-0.543,2.591-0.813,5.136-0.813H410.471z"/>
		<path fill="#1A1026" d="M502.704,51.682c1.832,0,3.17,0.318,4.011,0.955c0.844,0.636,1.266,1.646,1.266,3.027
			c0,1.31-0.395,2.292-1.18,2.945c-0.785,0.655-1.963,0.981-3.533,0.981h-22.719v18.734c0,6.135,0.793,10.174,2.387,12.118
			c1.586,1.943,4.307,2.916,8.158,2.916c3.403,0,7.479-0.99,12.229-2.972c4.75-1.982,7.687-2.975,8.808-2.975
			c1.047,0,1.936,0.375,2.666,1.122c0.727,0.75,1.092,1.665,1.092,2.749c0,1.233-0.457,2.308-1.373,3.226
			c-0.916,0.917-2.479,1.805-4.685,2.664c-3.665,1.459-6.967,2.525-9.899,3.198c-2.938,0.673-5.695,1.01-8.273,1.01
			c-4.375,0-8.049-0.702-11.022-2.104c-2.974-1.403-5.188-3.485-6.646-6.256c-0.75-1.307-1.278-2.858-1.6-4.653
			c-0.318-1.795-0.478-4.562-0.478-8.303v-1.739V59.591h-9.534c-1.57,0-2.714-0.309-3.425-0.925
			c-0.709-0.617-1.065-1.617-1.065-3.002c0-1.533,0.487-2.58,1.461-3.141c0.973-0.561,3.049-0.842,6.227-0.842h6.338V40.183V37.21
			c0-1.607,0.347-2.796,1.037-3.562c0.691-0.766,1.769-1.149,3.228-1.149c1.645,0,2.785,0.468,3.422,1.402
			c0.635,0.936,0.953,3.066,0.953,6.396v11.386H502.704z"/>
		<path fill="#1A1026" d="M559.414,93.248c-3.067,2.767-6.403,4.88-10.012,6.338s-7.322,2.188-11.135,2.188
			c-5.572,0-10.068-1.551-13.488-4.655c-3.424-3.104-5.135-7.143-5.135-12.115c0-5.909,2.271-10.49,6.813-13.743
			c4.546-3.254,10.933-4.881,19.156-4.881c2.17,0,4.357,0.141,6.562,0.421c2.207,0.281,4.469,0.721,6.787,1.319v-0.394
			c0-4.3-1.027-7.479-3.086-9.536c-2.056-2.056-5.252-3.085-9.591-3.085c-2.916,0-6.172,0.785-9.762,2.355
			c-3.59,1.571-5.963,2.355-7.121,2.355c-1.086,0-1.983-0.438-2.692-1.318c-0.711-0.877-1.066-2.009-1.066-3.394
			c0-2.206,2.066-4.076,6.201-5.609c4.129-1.533,9.412-2.301,15.846-2.301c6.58,0,11.555,1.675,14.918,5.021
			c3.365,3.347,5.047,8.292,5.047,14.837v25.41h2.75c2.654,0,4.433,0.281,5.328,0.841c0.9,0.562,1.349,1.571,1.349,3.03
			c0,1.345-0.375,2.354-1.121,3.027c-0.75,0.674-1.871,1.011-3.367,1.011h-8.803c-1.05,0-1.91-0.318-2.586-0.955
			c-0.673-0.635-1.119-1.551-1.345-2.748L559.414,93.248z M558.965,75.577c-2.056-0.672-4.048-1.168-5.976-1.486
			c-1.924-0.316-3.842-0.477-5.748-0.477c-5.76,0-10.301,0.974-13.631,2.918c-3.326,1.944-4.994,4.562-4.994,7.853
			c0,2.543,1.039,4.637,3.115,6.282c2.074,1.646,4.721,2.468,7.938,2.468c4.75,0,9.151-1.241,13.209-3.729
			c4.059-2.487,6.086-5.077,6.086-7.769V75.577z"/>
	</g>
	<g>
		<path fill="#1A1026" d="M303.753,191.975h2.467c2.791,0,4.684,0.297,5.68,0.89c0.994,0.592,1.491,1.672,1.491,3.239
			c0,1.34-0.394,2.354-1.176,3.041c-0.784,0.688-1.921,1.033-3.414,1.033h-26.446c-1.799,0-3.05-0.307-3.758-0.918
			s-1.062-1.664-1.062-3.156c0-1.377,0.373-2.41,1.118-3.098c0.746-0.688,1.865-1.031,3.355-1.031h12.449l9.294-18.299
			l-21.055-41.249c-2.524,0-4.254-0.306-5.191-0.917c-0.938-0.613-1.405-1.683-1.405-3.213c0-1.339,0.381-2.343,1.146-3.012
			s1.912-1.004,3.441-1.004h16.006c2.143,0,3.576,0.296,4.302,0.889c0.727,0.593,1.091,1.635,1.091,3.126
			c0,1.53-0.479,2.6-1.435,3.213c-0.956,0.611-2.716,0.917-5.278,0.917h-2.122l15.547,31.61l15.833-31.61h-2.237
			c-2.639,0-4.456-0.306-5.449-0.917c-0.996-0.613-1.492-1.683-1.492-3.213c0-1.492,0.363-2.534,1.091-3.126
			c0.726-0.593,2.18-0.889,4.359-0.889h14.169c1.568,0,2.726,0.334,3.472,1.004c0.745,0.669,1.117,1.673,1.117,3.012
			c0,1.453-0.421,2.485-1.262,3.098s-2.333,0.956-4.474,1.032L303.753,191.975z"/>
		<path fill="#1A1026" d="M344.041,173.159v-10.211c0-1.685,0.315-2.888,0.946-3.615s1.655-1.09,3.069-1.09
			c1.567,0,2.811,1.071,3.728,3.213c0.612,1.301,1.167,2.274,1.665,2.926c1.606,2.066,3.978,3.721,7.113,4.963
			c3.135,1.242,6.597,1.863,10.383,1.863c4.053,0,7.306-0.822,9.752-2.467c2.447-1.646,3.672-3.806,3.672-6.482
			c0-2.715-0.984-4.646-2.955-5.793c-1.97-1.148-5.344-1.723-10.125-1.723h-3.153c-7.802,0-13.749-1.355-17.842-4.072
			c-4.094-2.715-6.139-6.654-6.139-11.818c0-5.048,1.999-8.968,5.996-11.76c3.995-2.792,9.609-4.188,16.837-4.188
			c2.945,0,5.946,0.411,9.007,1.233c3.06,0.822,4.665,1.233,4.818,1.233c0.42,0,1.224-0.373,2.409-1.119
			c1.185-0.746,2.352-1.119,3.5-1.119c1.299,0,2.266,0.479,2.896,1.434c0.633,0.956,0.947,2.391,0.947,4.303v6.712
			c0,2.025-0.308,3.489-0.918,4.389c-0.612,0.898-1.588,1.347-2.926,1.347c-1.148,0-2.563-0.974-4.245-2.925
			c-1.187-1.338-2.161-2.351-2.926-3.04c-2.029-1.873-4.188-3.222-6.482-4.044c-2.295-0.822-4.992-1.232-8.089-1.232
			c-3.595,0-6.492,0.794-8.69,2.38c-2.2,1.587-3.298,3.604-3.298,6.053c0,2.409,1.126,4.129,3.385,5.163
			c2.256,1.033,7.113,1.625,14.57,1.777c7.955,0.19,13.77,1.575,17.44,4.159c3.672,2.58,5.506,6.568,5.506,11.961
			c0,5.164-2.027,9.293-6.081,12.394c-4.053,3.098-9.523,4.645-16.406,4.645c-2.18,0-4.608-0.198-7.285-0.602
			c-2.677-0.402-6.044-1.08-10.097-2.037c-1.339,0.879-2.486,1.539-3.441,1.979c-0.956,0.438-1.761,0.659-2.409,0.659
			c-1.34,0-2.362-0.467-3.069-1.405C344.394,176.266,344.041,174.918,344.041,173.159z"/>
		<path fill="#1A1026" d="M443.337,127.494c1.873,0,3.239,0.324,4.102,0.975c0.86,0.651,1.29,1.684,1.29,3.099
			c0,1.339-0.401,2.342-1.205,3.012c-0.803,0.67-2.008,1.004-3.614,1.004h-23.232v19.16c0,6.272,0.812,10.403,2.438,12.393
			c1.625,1.988,4.408,2.982,8.349,2.982c3.479,0,7.646-1.015,12.505-3.041c4.855-2.025,7.858-3.039,9.007-3.039
			c1.071,0,1.979,0.381,2.725,1.146c0.746,0.766,1.119,1.701,1.119,2.812c0,1.264-0.469,2.362-1.405,3.299
			c-0.938,0.938-2.533,1.846-4.791,2.725c-3.747,1.492-7.122,2.58-10.124,3.271c-3.003,0.688-5.823,1.031-8.462,1.031
			c-4.475,0-8.231-0.718-11.272-2.152c-3.039-1.435-5.307-3.564-6.797-6.396c-0.766-1.34-1.311-2.926-1.636-4.762
			c-0.324-1.836-0.486-4.666-0.486-8.49v-1.778v-19.16h-9.753c-1.606,0-2.773-0.315-3.499-0.946
			c-0.729-0.631-1.092-1.654-1.092-3.068c0-1.567,0.496-2.64,1.491-3.213s3.117-0.86,6.368-0.86h6.483v-11.761v-3.041
			c0-1.645,0.352-2.858,1.061-3.643c0.707-0.785,1.809-1.176,3.298-1.176c1.684,0,2.85,0.478,3.5,1.435
			c0.649,0.956,0.976,3.137,0.976,6.54v11.646L443.337,127.494L443.337,127.494z"/>
		<path fill="#1A1026" d="M469.877,153.309c0.307,5.506,2.17,9.765,5.595,12.765c3.422,3.002,8.098,4.504,14.024,4.504
			c4.476,0,9.351-1.195,14.63-3.586c5.276-2.392,8.471-3.586,9.579-3.586c1.146,0,2.104,0.364,2.868,1.092
			c0.765,0.727,1.147,1.625,1.147,2.694c0,1.109-0.401,2.123-1.204,3.041c-0.805,0.918-2.085,1.816-3.845,2.695
			c-3.824,1.875-7.772,3.309-11.847,4.303c-4.073,0.994-8.118,1.492-12.133,1.492c-8.72,0-15.699-2.514-20.938-7.545
			c-5.239-5.027-7.859-11.693-7.859-19.99c0-8.453,2.772-15.299,8.319-20.539c5.545-5.238,12.771-7.857,21.684-7.857
			c8.069,0,14.762,2.446,20.079,7.343c5.315,4.896,7.974,10.822,7.974,17.785c0,2.139-0.448,3.572-1.348,4.301
			c-0.899,0.728-3.338,1.09-7.314,1.09h-0.859L469.877,153.309L469.877,153.309z M470.165,145.795h37.346
			c-0.573-4.553-2.477-8.214-5.708-10.986c-3.232-2.772-7.198-4.16-11.903-4.16c-5.087,0-9.37,1.339-12.849,4.017
			C473.568,137.343,471.273,141.051,470.165,145.795z"/>
		<path fill="#1A1026" d="M580.939,145.334c0-5.392-0.485-9.035-1.45-10.928c-0.969-1.893-2.629-2.839-4.983-2.839
			c-2.81,0-5.041,1.224-6.693,3.671c-1.649,2.447-2.477,5.812-2.477,10.096V169.2h1.032c2.334,0,3.893,0.276,4.677,0.832
			c0.783,0.555,1.176,1.598,1.176,3.127c0,1.377-0.324,2.409-0.976,3.098c-0.65,0.688-1.645,1.033-2.982,1.033h-7.286
			c-1.644,0-2.764-0.383-3.354-1.148c-0.594-0.764-0.891-2.41-0.891-4.934v-1.664v-24.209v-4.474c0-2.869-0.644-5.135-1.934-6.799
			c-1.292-1.663-3.058-2.495-5.298-2.495c-1.709,0-3.276,0.507-4.699,1.52c-1.423,1.014-2.646,2.515-3.673,4.503v31.61h2.121
			c2.296,0,3.845,0.286,4.647,0.86c0.803,0.572,1.204,1.605,1.204,3.099c0,1.567-0.324,2.646-0.975,3.239
			c-0.651,0.595-1.895,0.892-3.729,0.892h-15.35c-1.501,0-2.605-0.336-3.318-1.004c-0.71-0.672-1.065-1.713-1.065-3.127
			c0-1.529,0.448-2.572,1.349-3.127c0.897-0.556,2.646-0.832,5.249-0.832h1.146v-36.772h-1.033c-2.678,0-4.502-0.306-5.479-0.917
			c-0.976-0.613-1.463-1.683-1.463-3.213c0-1.339,0.386-2.343,1.154-3.012s1.921-1.004,3.46-1.004h8.825
			c1.277,0,2.119,0.22,2.525,0.659c0.408,0.439,0.651,1.367,0.729,2.782c1.562-1.682,3.234-2.926,5.021-3.729
			c1.788-0.804,3.805-1.204,6.049-1.204c2.662,0,4.857,0.583,6.591,1.749c1.729,1.167,3.015,2.936,3.852,5.307
			c1.606-2.41,3.461-4.188,5.563-5.335c2.104-1.147,4.514-1.721,7.229-1.721c4.933,0,8.537,1.604,10.813,4.817
			c2.274,3.213,3.413,8.415,3.413,15.604V169.2h0.918c2.37,0,3.958,0.286,4.762,0.86c0.803,0.572,1.203,1.605,1.203,3.099
			c0,1.377-0.344,2.409-1.032,3.098c-0.688,0.688-1.7,1.033-3.04,1.033h-6.995c-1.55,0-2.692-0.459-3.43-1.379
			c-0.737-0.918-1.105-2.369-1.105-4.357v-26.22H580.939z"/>
		<path fill="#1A1026" d="M605.264,173.159v-10.211c0-1.685,0.314-2.888,0.945-3.615c0.632-0.728,1.653-1.09,3.069-1.09
			c1.567,0,2.812,1.071,3.729,3.213c0.61,1.301,1.168,2.274,1.663,2.926c1.606,2.066,3.979,3.721,7.113,4.963
			c3.138,1.242,6.598,1.863,10.384,1.863c4.055,0,7.305-0.822,9.753-2.467c2.447-1.646,3.671-3.806,3.671-6.482
			c0-2.715-0.984-4.646-2.953-5.793c-1.97-1.148-5.346-1.723-10.126-1.723h-3.155c-7.802,0-13.748-1.355-17.842-4.072
			c-4.092-2.715-6.138-6.654-6.138-11.818c0-5.048,1.997-8.968,5.994-11.76s9.609-4.188,16.839-4.188
			c2.944,0,5.945,0.411,9.006,1.233c3.06,0.822,4.665,1.233,4.818,1.233c0.419,0,1.225-0.373,2.408-1.119
			c1.188-0.746,2.354-1.119,3.501-1.119c1.299,0,2.267,0.479,2.896,1.434c0.631,0.956,0.944,2.391,0.944,4.303v6.712
			c0,2.025-0.305,3.489-0.917,4.389c-0.61,0.898-1.587,1.347-2.925,1.347c-1.147,0-2.562-0.974-4.245-2.925
			c-1.187-1.338-2.162-2.351-2.927-3.04c-2.027-1.873-4.188-3.222-6.482-4.044c-2.294-0.822-4.989-1.232-8.089-1.232
			c-3.596,0-6.491,0.794-8.689,2.38c-2.2,1.587-3.299,3.604-3.299,6.053c0,2.409,1.128,4.129,3.385,5.163
			c2.256,1.033,7.112,1.625,14.571,1.777c7.953,0.19,13.768,1.575,17.438,4.159c3.671,2.58,5.507,6.568,5.507,11.961
			c0,5.164-2.026,9.293-6.082,12.394c-4.052,3.098-9.521,4.645-16.404,4.645c-2.181,0-4.608-0.198-7.287-0.602
			c-2.677-0.402-6.042-1.08-10.097-2.037c-1.339,0.879-2.484,1.539-3.441,1.979c-0.956,0.438-1.759,0.659-2.409,0.659
			c-1.338,0-2.361-0.467-3.069-1.405C605.618,176.266,605.264,174.918,605.264,173.159z"/>
	</g>
</g>
</svg>
