<?xml version="1.0" encoding="utf-8"?>
<!-- Generator: Adobe Illustrator 15.0.0, SVG Export Plug-In . SVG Version: 6.00 Build 0)  -->
<!DOCTYPE svg PUBLIC "-//W3C//DTD SVG 1.1//EN" "http://www.w3.org/Graphics/SVG/1.1/DTD/svg11.dtd">
<svg version="1.1" id="Layer_1" xmlns="http://www.w3.org/2000/svg" xmlns:xlink="http://www.w3.org/1999/xlink" x="0px" y="0px"
	 width="347px" height="160px" viewBox="155.733 64.992 347 160" enable-background="new 155.733 64.992 347 160"
	 xml:space="preserve">
<g id="a_s">
	<g>
		<path fill="#1A1026" d="M297.781,125.143l0.629,28.943h-2.346c-1.106-7.256-3.825-13.094-8.155-17.513
			c-4.329-4.418-9.013-6.627-14.049-6.627c-3.891,0-6.971,1.164-9.242,3.49c-2.27,2.327-3.404,5.006-3.404,8.037
			c0,1.921,0.4,3.628,1.202,5.122c1.106,2.007,2.88,3.992,5.322,5.957c1.792,1.408,5.932,3.905,12.417,7.491
			c9.081,4.993,15.204,9.712,18.37,14.15c3.128,4.44,4.692,9.521,4.692,15.241c0,7.258-2.527,13.501-7.582,18.73
			c-5.055,5.23-11.474,7.845-19.256,7.845c-2.442,0-4.75-0.277-6.924-0.832c-2.175-0.555-4.903-1.602-8.184-3.138
			c-1.832-0.854-3.338-1.281-4.521-1.281c-0.993,0-2.042,0.427-3.147,1.281c-1.106,0.854-2.002,2.154-2.69,3.906h-2.117v-32.787
			h2.117c1.679,9.222,4.911,16.254,9.7,21.101c4.788,4.846,9.948,7.269,15.479,7.269c4.272,0,7.678-1.303,10.214-3.906
			c2.537-2.604,3.805-5.636,3.805-9.094c0-2.049-0.486-4.033-1.459-5.955s-2.451-3.746-4.435-5.476
			c-1.984-1.729-5.494-3.98-10.529-6.756c-7.058-3.884-12.132-7.193-15.222-9.925c-3.09-2.732-5.465-5.785-7.125-9.157
			c-1.66-3.372-2.489-7.087-2.489-11.144c0-6.915,2.27-12.806,6.81-17.672c4.54-4.867,10.262-7.301,17.167-7.301
			c2.518,0,4.96,0.343,7.324,1.025c1.793,0.512,3.978,1.462,6.553,2.85c2.574,1.387,4.377,2.081,5.407,2.081
			c0.992,0,1.774-0.342,2.347-1.024c0.571-0.683,1.106-2.327,1.602-4.931L297.781,125.143L297.781,125.143z"/>
	</g>
	<g>
		<path fill="#1A1026" d="M244.659,75.968l-5.652,27.182c-1.015,4.738-2.173,9.357-3.479,13.857c-1.303,4.5-2.729,8.794-4.274,12.88
			c1.642,5.271,3.405,9.225,5.289,11.859c1.884,2.636,3.888,3.952,6.015,3.952c1.593,0,2.98-0.275,4.681-1.01
			c2.412-1.042,5.395-4.749,5.685-7.296l0.689,0.174l-0.518,1.736c0,6.753-2.4,11.77-3.945,15.056
			c-1.546,3.289-3.889,4.932-7.028,4.932c-3.333,0-5.968-1.598-7.898-4.797c-1.933-3.199-3.793-9.297-5.579-18.3
			c-3.913,8.115-8.151,13.989-12.716,17.633c-4.565,3.643-9.938,5.464-16.122,5.464c-9.419,0-17.257-4.1-23.511-12.303
			c-6.256-8.201-9.383-18.58-9.383-31.136c0-11.311,3.211-21.2,9.636-29.669c6.424-8.467,14.032-12.704,22.825-12.704
			c6.906,0,12.545,2.488,16.918,7.462c4.371,4.974,7.45,12.436,9.239,22.386l5.289-27.36H244.659z M223.574,114.254
			c-2.173-12.494-4.976-21.482-8.405-26.961c-3.431-5.478-7.897-8.216-13.404-8.216c-5.942,0-10.64,3.331-14.093,9.993
			c-3.454,6.663-5.18,15.71-5.18,27.139c0,12.378,1.631,21.839,4.891,28.382c3.261,6.544,8.007,9.816,14.239,9.816
			c5.651,0,10.094-2.858,13.331-8.573S221.063,129.593,223.574,114.254z"/>
	</g>
</g>
<g id="Courier" display="none">
	<g display="inline">
		<path fill="#1A171B" d="M205.783,51.682c1.832,0,3.17,0.318,4.011,0.955c0.843,0.636,1.264,1.646,1.264,3.027
			c0,1.31-0.394,2.292-1.179,2.945c-0.785,0.655-1.963,0.981-3.533,0.981h-22.719v18.734c0,6.135,0.793,10.174,2.384,12.118
			c1.59,1.943,4.311,2.916,8.162,2.916c3.402,0,7.479-0.99,12.229-2.972c4.748-1.982,7.685-2.975,8.806-2.975
			c1.046,0,1.937,0.375,2.665,1.122c0.73,0.75,1.094,1.665,1.094,2.749c0,1.233-0.458,2.308-1.375,3.226
			c-0.917,0.917-2.477,1.805-4.684,2.664c-3.666,1.459-6.964,2.525-9.9,3.198c-2.936,0.673-5.692,1.01-8.273,1.01
			c-4.375,0-8.049-0.702-11.021-2.104c-2.973-1.403-5.188-3.485-6.647-6.256c-0.748-1.307-1.282-2.858-1.599-4.653
			s-0.477-4.562-0.477-8.303v-1.739V59.591h-9.537c-1.57,0-2.711-0.309-3.421-0.925c-0.711-0.617-1.066-1.617-1.066-3.002
			c0-1.533,0.485-2.58,1.458-3.141c0.974-0.561,3.049-0.842,6.228-0.842h6.338V40.183V37.21c0-1.607,0.345-2.796,1.038-3.562
			c0.69-0.766,1.767-1.149,3.225-1.149c1.646,0,2.785,0.468,3.422,1.402c0.636,0.936,0.953,3.066,0.953,6.396v11.386H205.783z"/>
		<path fill="#1A171B" d="M266.2,93.248c-3.066,2.767-6.404,4.88-10.012,6.338c-3.61,1.458-7.321,2.188-11.135,2.188
			c-5.574,0-10.069-1.551-13.49-4.655c-3.422-3.104-5.132-7.143-5.132-12.115c0-5.909,2.271-10.49,6.814-13.743
			c4.543-3.254,10.929-4.881,19.156-4.881c2.167,0,4.355,0.141,6.562,0.421c2.206,0.281,4.468,0.721,6.786,1.319v-0.394
			c0-4.3-1.027-7.479-3.084-9.536c-2.057-2.056-5.254-3.085-9.592-3.085c-2.917,0-6.171,0.785-9.76,2.355
			c-3.589,1.571-5.965,2.355-7.124,2.355c-1.085,0-1.982-0.438-2.693-1.318c-0.711-0.877-1.064-2.009-1.064-3.394
			c0-2.206,2.065-4.076,6.198-5.609c4.132-1.533,9.414-2.301,15.847-2.301c6.582,0,11.555,1.675,14.92,5.021
			c3.366,3.347,5.048,8.292,5.048,14.837v25.41h2.75c2.654,0,4.431,0.281,5.329,0.841c0.896,0.562,1.345,1.571,1.345,3.03
			c0,1.345-0.374,2.354-1.121,3.027c-0.749,0.674-1.871,1.011-3.365,1.011h-8.808c-1.047,0-1.907-0.318-2.58-0.955
			c-0.673-0.635-1.122-1.551-1.346-2.748L266.2,93.248z M265.751,75.577c-2.057-0.672-4.048-1.168-5.973-1.486
			c-1.926-0.316-3.842-0.477-5.749-0.477c-5.76,0-10.303,0.974-13.631,2.918c-3.329,1.944-4.992,4.562-4.992,7.853
			c0,2.543,1.037,4.637,3.112,6.282c2.075,1.646,4.721,2.468,7.938,2.468c4.748,0,9.152-1.241,13.21-3.729
			c4.058-2.487,6.085-5.077,6.085-7.769V75.577z"/>
		<path fill="#1A171B" d="M312.919,35.022h-9.535c-3.628,0-5.899-0.29-6.816-0.87c-0.917-0.578-1.374-1.635-1.374-3.168
			c0-1.346,0.383-2.355,1.149-3.029c0.767-0.672,1.88-1.01,3.338-1.01h18.511c1.01,0,1.795,0.206,2.355,0.616
			c0.561,0.413,0.842,0.975,0.842,1.684v63.217h17.613c1.421,0,2.459,0.309,3.112,0.925c0.653,0.617,0.982,1.6,0.982,2.946
			c0,1.533-0.318,2.588-0.954,3.167c-0.636,0.582-1.832,0.871-3.59,0.871h-41.396c-1.458,0-2.572-0.337-3.338-1.011
			c-0.768-0.673-1.15-1.683-1.15-3.027c0-1.311,0.394-2.281,1.179-2.917c0.784-0.635,1.963-0.954,3.533-0.954h15.537V35.022H312.919
			z"/>
		<path fill="#1A171B" d="M389.969,93.248c-3.067,2.767-6.405,4.88-10.014,6.338s-7.319,2.188-11.135,2.188
			c-5.573,0-10.069-1.551-13.49-4.655c-3.422-3.104-5.133-7.143-5.133-12.115c0-5.909,2.273-10.49,6.816-13.743
			c4.543-3.254,10.929-4.881,19.155-4.881c2.168,0,4.355,0.141,6.562,0.421c2.207,0.281,4.469,0.721,6.788,1.319v-0.394
			c0-4.3-1.029-7.479-3.085-9.536c-2.057-2.056-5.255-3.085-9.592-3.085c-2.917,0-6.17,0.785-9.762,2.355
			c-3.589,1.571-5.965,2.355-7.122,2.355c-1.087,0-1.983-0.438-2.693-1.318c-0.71-0.877-1.065-2.009-1.065-3.394
			c0-2.206,2.066-4.076,6.198-5.609c4.131-1.533,9.414-2.301,15.846-2.301c6.582,0,11.557,1.675,14.922,5.021
			c3.364,3.347,5.048,8.292,5.048,14.837v25.41h2.749c2.655,0,4.432,0.281,5.327,0.841c0.898,0.562,1.349,1.571,1.349,3.03
			c0,1.345-0.374,2.354-1.123,3.027c-0.748,0.674-1.869,1.011-3.365,1.011h-8.807c-1.047,0-1.906-0.318-2.58-0.955
			c-0.674-0.635-1.122-1.551-1.346-2.748L389.969,93.248z M389.519,75.577c-2.057-0.672-4.05-1.168-5.974-1.486
			c-1.929-0.316-3.845-0.477-5.75-0.477c-5.76,0-10.303,0.974-13.631,2.918c-3.329,1.944-4.992,4.562-4.992,7.853
			c0,2.543,1.038,4.637,3.112,6.282c2.076,1.646,4.722,2.468,7.938,2.468c4.75,0,9.151-1.241,13.211-3.729
			c4.058-2.487,6.086-5.077,6.086-7.769V75.577z"/>
		<path fill="#1A171B" d="M425.137,92.461V56.506h-1.066c-2.543,0-4.291-0.3-5.245-0.897c-0.95-0.597-1.429-1.646-1.429-3.141
			c0-1.383,0.395-2.384,1.179-3c0.786-0.618,2.057-0.926,3.813-0.926h2.637h5.386c1.011,0,1.793,0.206,2.354,0.617
			c0.562,0.413,0.843,0.974,0.843,1.684v3.813c2.729-2.542,5.432-4.423,8.104-5.638s5.448-1.823,8.328-1.823
			c5.646,0,10.09,1.76,13.324,5.273c3.231,3.515,4.852,8.377,4.852,14.584v25.41h2.637c1.869,0,3.215,0.309,4.039,0.925
			c0.821,0.617,1.231,1.6,1.231,2.946c0,1.458-0.438,2.495-1.314,3.111c-0.88,0.618-2.441,0.928-4.687,0.928h-12.396
			c-2.396,0-3.926-0.28-4.598-0.843c-0.674-0.561-1.012-1.625-1.012-3.195c0-1.458,0.395-2.469,1.179-3.03
			c0.786-0.561,2.262-0.841,4.431-0.841h1.964V69.127c0-4.375-0.99-7.713-2.974-10.013c-1.981-2.3-4.861-3.45-8.639-3.45
			c-3.813,0-7.18,1.291-10.096,3.872c-2.918,2.58-4.375,5.775-4.375,9.591v23.334h1.962c2.243,0,3.758,0.281,4.545,0.841
			c0.784,0.561,1.177,1.571,1.177,3.03c0,1.569-0.338,2.636-1.01,3.194c-0.672,0.563-2.316,0.844-4.936,0.844h-10.21h-3.027
			c-1.537,0-2.686-0.328-3.451-0.982c-0.765-0.654-1.148-1.673-1.148-3.056c0-1.496,0.438-2.516,1.315-3.058
			c0.88-0.543,2.59-0.813,5.135-0.813H425.137z"/>
		<path fill="#1A171B" d="M523.371,51.682c1.831,0,3.17,0.318,4.011,0.955c0.843,0.636,1.265,1.646,1.265,3.027
			c0,1.31-0.394,2.292-1.18,2.945c-0.785,0.655-1.963,0.981-3.533,0.981h-22.719v18.734c0,6.135,0.794,10.174,2.387,12.118
			c1.586,1.943,4.307,2.916,8.158,2.916c3.404,0,7.479-0.99,12.229-2.972c4.75-1.982,7.686-2.975,8.806-2.975
			c1.048,0,1.938,0.375,2.666,1.122c0.729,0.75,1.094,1.665,1.094,2.749c0,1.233-0.458,2.308-1.374,3.226
			c-0.916,0.917-2.479,1.805-4.685,2.664c-3.666,1.459-6.966,2.525-9.898,3.198c-2.938,0.673-5.695,1.01-8.274,1.01
			c-4.374,0-8.049-0.702-11.022-2.104c-2.973-1.403-5.188-3.485-6.646-6.256c-0.75-1.307-1.279-2.858-1.599-4.653
			c-0.32-1.795-0.478-4.562-0.478-8.303v-1.739V59.591h-9.535c-1.569,0-2.714-0.309-3.424-0.925
			c-0.709-0.617-1.065-1.617-1.065-3.002c0-1.533,0.486-2.58,1.46-3.141c0.973-0.561,3.049-0.842,6.228-0.842h6.338V40.183V37.21
			c0-1.607,0.347-2.796,1.037-3.562c0.691-0.766,1.768-1.149,3.228-1.149c1.645,0,2.784,0.468,3.421,1.402
			c0.635,0.936,0.953,3.066,0.953,6.396v11.386H523.371z"/>
		<path fill="#1A171B" d="M582.748,93.248c-3.067,2.767-6.404,4.88-10.012,6.338c-3.61,1.458-7.322,2.188-11.136,2.188
			c-5.571,0-10.067-1.551-13.488-4.655c-3.424-3.104-5.135-7.143-5.135-12.115c0-5.909,2.271-10.49,6.814-13.743
			c4.545-3.254,10.932-4.881,19.156-4.881c2.17,0,4.357,0.141,6.562,0.421c2.207,0.281,4.469,0.721,6.786,1.319v-0.394
			c0-4.3-1.026-7.479-3.085-9.536c-2.057-2.056-5.254-3.085-9.592-3.085c-2.915,0-6.171,0.785-9.761,2.355
			c-3.59,1.571-5.964,2.355-7.122,2.355c-1.085,0-1.982-0.438-2.692-1.318c-0.71-0.877-1.066-2.009-1.066-3.394
			c0-2.206,2.067-4.076,6.201-5.609c4.129-1.533,9.413-2.301,15.846-2.301c6.58,0,11.555,1.675,14.919,5.021
			c3.365,3.347,5.047,8.292,5.047,14.837v25.41h2.749c2.655,0,4.434,0.281,5.329,0.841c0.899,0.562,1.349,1.571,1.349,3.03
			c0,1.345-0.375,2.354-1.121,3.027c-0.75,0.674-1.872,1.011-3.368,1.011h-8.803c-1.049,0-1.91-0.318-2.585-0.955
			c-0.673-0.635-1.119-1.551-1.346-2.748L582.748,93.248z M582.298,75.577c-2.055-0.672-4.047-1.168-5.975-1.486
			c-1.925-0.316-3.842-0.477-5.748-0.477c-5.761,0-10.302,0.974-13.631,2.918c-3.327,1.944-4.994,4.562-4.994,7.853
			c0,2.543,1.038,4.637,3.115,6.282c2.074,1.646,4.721,2.468,7.938,2.468c4.75,0,9.152-1.241,13.209-3.729
			c4.06-2.487,6.086-5.077,6.086-7.769V75.577z"/>
	</g>
	<g display="inline">
		<path fill="#1A171B" d="M303.753,191.975h2.467c2.791,0,4.684,0.297,5.68,0.89c0.994,0.592,1.491,1.672,1.491,3.239
			c0,1.34-0.394,2.354-1.176,3.041c-0.784,0.688-1.921,1.033-3.414,1.033h-26.446c-1.799,0-3.05-0.307-3.758-0.918
			s-1.062-1.664-1.062-3.156c0-1.377,0.373-2.41,1.118-3.098c0.746-0.688,1.865-1.031,3.355-1.031h12.449l9.294-18.299
			l-21.055-41.249c-2.524,0-4.254-0.306-5.191-0.917c-0.938-0.613-1.405-1.683-1.405-3.213c0-1.339,0.381-2.343,1.146-3.012
			s1.912-1.004,3.441-1.004h16.006c2.143,0,3.576,0.296,4.302,0.889c0.727,0.593,1.091,1.635,1.091,3.126
			c0,1.53-0.479,2.6-1.435,3.213c-0.956,0.611-2.716,0.917-5.278,0.917h-2.122l15.547,31.61l15.833-31.61h-2.237
			c-2.639,0-4.456-0.306-5.449-0.917c-0.996-0.613-1.492-1.683-1.492-3.213c0-1.492,0.363-2.534,1.091-3.126
			c0.726-0.593,2.18-0.889,4.359-0.889h14.169c1.568,0,2.726,0.334,3.472,1.004c0.745,0.669,1.117,1.673,1.117,3.012
			c0,1.453-0.421,2.485-1.262,3.098s-2.333,0.956-4.474,1.032L303.753,191.975z"/>
		<path fill="#1A171B" d="M344.041,173.159v-10.211c0-1.685,0.315-2.888,0.946-3.615s1.655-1.09,3.069-1.09
			c1.567,0,2.811,1.071,3.728,3.213c0.612,1.301,1.167,2.274,1.665,2.926c1.606,2.066,3.978,3.721,7.113,4.963
			c3.135,1.242,6.597,1.863,10.383,1.863c4.053,0,7.306-0.822,9.752-2.467c2.447-1.646,3.672-3.806,3.672-6.482
			c0-2.715-0.984-4.646-2.955-5.793c-1.97-1.148-5.344-1.723-10.125-1.723h-3.153c-7.802,0-13.749-1.355-17.842-4.072
			c-4.094-2.715-6.139-6.654-6.139-11.818c0-5.048,1.999-8.968,5.996-11.76c3.995-2.792,9.609-4.188,16.837-4.188
			c2.945,0,5.946,0.411,9.007,1.233c3.06,0.822,4.665,1.233,4.818,1.233c0.42,0,1.224-0.373,2.409-1.119
			c1.185-0.746,2.352-1.119,3.5-1.119c1.299,0,2.266,0.479,2.896,1.434c0.633,0.956,0.947,2.391,0.947,4.303v6.712
			c0,2.025-0.308,3.489-0.918,4.389c-0.612,0.898-1.588,1.347-2.926,1.347c-1.148,0-2.563-0.974-4.245-2.925
			c-1.187-1.338-2.161-2.351-2.926-3.04c-2.029-1.873-4.188-3.222-6.482-4.044c-2.295-0.822-4.992-1.232-8.089-1.232
			c-3.595,0-6.492,0.794-8.69,2.38c-2.2,1.587-3.298,3.604-3.298,6.053c0,2.409,1.126,4.129,3.385,5.163
			c2.256,1.033,7.113,1.625,14.57,1.777c7.955,0.19,13.77,1.575,17.44,4.159c3.672,2.58,5.506,6.568,5.506,11.961
			c0,5.164-2.027,9.293-6.081,12.394c-4.053,3.098-9.523,4.645-16.406,4.645c-2.18,0-4.608-0.198-7.285-0.602
			c-2.677-0.402-6.044-1.08-10.097-2.037c-1.339,0.879-2.486,1.539-3.441,1.979c-0.956,0.438-1.761,0.659-2.409,0.659
			c-1.34,0-2.362-0.467-3.069-1.405C344.394,176.266,344.041,174.918,344.041,173.159z"/>
		<path fill="#1A171B" d="M443.337,127.494c1.873,0,3.239,0.324,4.102,0.975c0.86,0.651,1.29,1.684,1.29,3.099
			c0,1.339-0.401,2.342-1.205,3.012c-0.803,0.67-2.008,1.004-3.614,1.004h-23.232v19.16c0,6.272,0.812,10.403,2.438,12.393
			c1.625,1.988,4.408,2.982,8.349,2.982c3.479,0,7.646-1.015,12.505-3.041c4.855-2.025,7.858-3.039,9.007-3.039
			c1.071,0,1.979,0.381,2.725,1.146c0.746,0.766,1.119,1.701,1.119,2.812c0,1.264-0.469,2.362-1.405,3.299
			c-0.938,0.938-2.533,1.846-4.791,2.725c-3.747,1.492-7.122,2.58-10.124,3.271c-3.003,0.688-5.823,1.031-8.462,1.031
			c-4.475,0-8.231-0.718-11.272-2.152c-3.039-1.435-5.307-3.564-6.797-6.396c-0.766-1.34-1.311-2.926-1.636-4.762
			c-0.324-1.836-0.486-4.666-0.486-8.49v-1.778v-19.16h-9.753c-1.606,0-2.773-0.315-3.499-0.946
			c-0.729-0.631-1.092-1.654-1.092-3.068c0-1.567,0.496-2.64,1.491-3.213s3.117-0.86,6.368-0.86h6.483v-11.761v-3.041
			c0-1.645,0.352-2.858,1.061-3.643c0.707-0.785,1.809-1.176,3.298-1.176c1.684,0,2.85,0.478,3.5,1.435
			c0.649,0.956,0.976,3.137,0.976,6.54v11.646L443.337,127.494L443.337,127.494z"/>
		<path fill="#1A171B" d="M469.877,153.309c0.307,5.506,2.17,9.765,5.595,12.765c3.422,3.002,8.098,4.504,14.024,4.504
			c4.476,0,9.351-1.195,14.63-3.586c5.276-2.392,8.471-3.586,9.579-3.586c1.146,0,2.104,0.364,2.868,1.092
			c0.765,0.727,1.147,1.625,1.147,2.694c0,1.109-0.401,2.123-1.204,3.041c-0.805,0.918-2.085,1.816-3.845,2.695
			c-3.824,1.875-7.772,3.309-11.847,4.303c-4.073,0.994-8.118,1.492-12.133,1.492c-8.72,0-15.699-2.514-20.938-7.545
			c-5.239-5.027-7.859-11.693-7.859-19.99c0-8.453,2.772-15.299,8.319-20.539c5.545-5.238,12.771-7.857,21.684-7.857
			c8.069,0,14.762,2.446,20.079,7.343c5.315,4.896,7.974,10.822,7.974,17.785c0,2.139-0.448,3.572-1.348,4.301
			c-0.899,0.728-3.338,1.09-7.314,1.09h-0.859L469.877,153.309L469.877,153.309z M470.165,145.795h37.346
			c-0.573-4.553-2.477-8.214-5.708-10.986c-3.232-2.772-7.198-4.16-11.903-4.16c-5.087,0-9.37,1.339-12.849,4.017
			C473.568,137.343,471.273,141.051,470.165,145.795z"/>
		<path fill="#1A171B" d="M580.939,145.334c0-5.392-0.485-9.035-1.45-10.928c-0.969-1.893-2.629-2.839-4.983-2.839
			c-2.81,0-5.041,1.224-6.693,3.671c-1.649,2.447-2.477,5.812-2.477,10.096V169.2h1.032c2.334,0,3.893,0.276,4.677,0.832
			c0.783,0.555,1.176,1.598,1.176,3.127c0,1.377-0.324,2.409-0.976,3.098c-0.65,0.688-1.645,1.033-2.982,1.033h-7.286
			c-1.644,0-2.764-0.383-3.354-1.148c-0.594-0.764-0.891-2.41-0.891-4.934v-1.664v-24.209v-4.474c0-2.869-0.644-5.135-1.934-6.799
			c-1.292-1.663-3.058-2.495-5.298-2.495c-1.709,0-3.276,0.507-4.699,1.52c-1.423,1.014-2.646,2.515-3.673,4.503v31.61h2.121
			c2.296,0,3.845,0.286,4.647,0.86c0.803,0.572,1.204,1.605,1.204,3.099c0,1.567-0.324,2.646-0.975,3.239
			c-0.651,0.595-1.895,0.892-3.729,0.892h-15.35c-1.501,0-2.605-0.336-3.318-1.004c-0.71-0.672-1.065-1.713-1.065-3.127
			c0-1.529,0.448-2.572,1.349-3.127c0.897-0.556,2.646-0.832,5.249-0.832h1.146v-36.772h-1.033c-2.678,0-4.502-0.306-5.479-0.917
			c-0.976-0.613-1.463-1.683-1.463-3.213c0-1.339,0.386-2.343,1.154-3.012s1.921-1.004,3.46-1.004h8.825
			c1.277,0,2.119,0.22,2.525,0.659c0.408,0.439,0.651,1.367,0.729,2.782c1.562-1.682,3.234-2.926,5.021-3.729
			c1.788-0.804,3.805-1.204,6.049-1.204c2.662,0,4.857,0.583,6.591,1.749c1.729,1.167,3.015,2.936,3.852,5.307
			c1.606-2.41,3.461-4.188,5.563-5.335c2.104-1.147,4.514-1.721,7.229-1.721c4.933,0,8.537,1.604,10.813,4.817
			c2.274,3.213,3.413,8.415,3.413,15.604V169.2h0.918c2.37,0,3.958,0.286,4.762,0.86c0.803,0.572,1.203,1.605,1.203,3.099
			c0,1.377-0.344,2.409-1.032,3.098c-0.688,0.688-1.7,1.033-3.04,1.033h-6.995c-1.55,0-2.692-0.459-3.43-1.379
			c-0.737-0.918-1.105-2.369-1.105-4.357v-26.22H580.939z"/>
		<path fill="#1A171B" d="M605.264,173.159v-10.211c0-1.685,0.314-2.888,0.945-3.615c0.632-0.728,1.653-1.09,3.069-1.09
			c1.567,0,2.812,1.071,3.729,3.213c0.61,1.301,1.168,2.274,1.663,2.926c1.606,2.066,3.979,3.721,7.113,4.963
			c3.138,1.242,6.598,1.863,10.384,1.863c4.055,0,7.305-0.822,9.753-2.467c2.447-1.646,3.671-3.806,3.671-6.482
			c0-2.715-0.984-4.646-2.953-5.793c-1.97-1.148-5.346-1.723-10.126-1.723h-3.155c-7.802,0-13.748-1.355-17.842-4.072
			c-4.092-2.715-6.138-6.654-6.138-11.818c0-5.048,1.997-8.968,5.994-11.76s9.609-4.188,16.839-4.188
			c2.944,0,5.945,0.411,9.006,1.233c3.06,0.822,4.665,1.233,4.818,1.233c0.419,0,1.225-0.373,2.408-1.119
			c1.188-0.746,2.354-1.119,3.501-1.119c1.299,0,2.267,0.479,2.896,1.434c0.631,0.956,0.944,2.391,0.944,4.303v6.712
			c0,2.025-0.305,3.489-0.917,4.389c-0.61,0.898-1.587,1.347-2.925,1.347c-1.147,0-2.562-0.974-4.245-2.925
			c-1.187-1.338-2.162-2.351-2.927-3.04c-2.027-1.873-4.188-3.222-6.482-4.044c-2.294-0.822-4.989-1.232-8.089-1.232
			c-3.596,0-6.491,0.794-8.689,2.38c-2.2,1.587-3.299,3.604-3.299,6.053c0,2.409,1.128,4.129,3.385,5.163
			c2.256,1.033,7.112,1.625,14.571,1.777c7.953,0.19,13.768,1.575,17.438,4.159c3.671,2.58,5.507,6.568,5.507,11.961
			c0,5.164-2.026,9.293-6.082,12.394c-4.052,3.098-9.521,4.645-16.404,4.645c-2.181,0-4.608-0.198-7.287-0.602
			c-2.677-0.402-6.042-1.08-10.097-2.037c-1.339,0.879-2.484,1.539-3.441,1.979c-0.956,0.438-1.759,0.659-2.409,0.659
			c-1.338,0-2.361-0.467-3.069-1.405C605.618,176.266,605.264,174.918,605.264,173.159z"/>
	</g>
</g>
<g id="Courier__x28_better_kerning_x29_">
	<g>
		<path fill="#1A1026" d="M267.715,97.218c0.916,0,1.585,0.16,2.005,0.481c0.421,0.32,0.632,0.83,0.632,1.526
			c0,0.66-0.197,1.155-0.589,1.485s-0.981,0.495-1.767,0.495h-11.359v9.446c0,3.093,0.396,5.13,1.192,6.11
			c0.795,0.98,2.155,1.47,4.081,1.47c1.701,0,3.74-0.499,6.114-1.498c2.374-1,3.842-1.5,4.403-1.5c0.523,0,0.968,0.189,1.333,0.565
			c0.365,0.378,0.547,0.84,0.547,1.386c0,0.622-0.229,1.164-0.688,1.626c-0.458,0.462-1.238,0.91-2.342,1.343
			c-1.833,0.736-3.482,1.273-4.95,1.613c-1.468,0.339-2.846,0.509-4.137,0.509c-2.188,0-4.024-0.354-5.511-1.061
			s-2.594-1.757-3.324-3.154c-0.374-0.659-0.641-1.441-0.799-2.346s-0.238-2.301-0.238-4.187v-0.877v-9.447h-4.769
			c-0.785,0-1.355-0.156-1.71-0.466c-0.355-0.312-0.533-0.815-0.533-1.514c0-0.773,0.243-1.301,0.729-1.584
			c0.487-0.282,1.524-0.424,3.114-0.424h3.169V91.42v-1.499c0-0.811,0.172-1.41,0.519-1.796c0.345-0.386,0.883-0.579,1.612-0.579
			c0.823,0,1.393,0.235,1.711,0.707c0.318,0.472,0.477,1.546,0.477,3.225v5.741H267.715z"/>
		<path fill="#1A1026" d="M296.924,118.177c-1.533,1.395-3.202,2.46-5.006,3.196c-1.805,0.735-3.661,1.103-5.567,1.103
			c-2.787,0-5.035-0.782-6.745-2.347c-1.711-1.565-2.566-3.602-2.566-6.109c0-2.979,1.136-5.289,3.407-6.929
			c2.271-1.641,5.464-2.461,9.578-2.461c1.083,0,2.178,0.071,3.281,0.212c1.103,0.142,2.234,0.364,3.393,0.666v-0.199
			c0-2.168-0.514-3.771-1.542-4.808c-1.028-1.037-2.627-1.556-4.796-1.556c-1.458,0-3.085,0.396-4.88,1.188
			c-1.794,0.792-2.982,1.188-3.562,1.188c-0.542,0-0.991-0.221-1.347-0.665c-0.355-0.442-0.532-1.013-0.532-1.711
			c0-1.112,1.033-2.055,3.099-2.829c2.066-0.773,4.707-1.16,7.923-1.16c3.291,0,5.777,0.845,7.46,2.532
			c1.683,1.688,2.524,4.181,2.524,7.481v12.812h1.375c1.327,0,2.215,0.142,2.665,0.424c0.448,0.283,0.672,0.792,0.672,1.528
			c0,0.678-0.187,1.187-0.561,1.526c-0.375,0.34-0.936,0.509-1.683,0.509h-4.404c-0.523,0-0.954-0.16-1.29-0.481
			c-0.336-0.32-0.561-0.782-0.673-1.386L296.924,118.177z M296.699,109.266c-1.028-0.338-2.024-0.589-2.986-0.75
			c-0.963-0.159-1.921-0.24-2.875-0.24c-2.88,0-5.151,0.491-6.815,1.472c-1.665,0.98-2.496,2.3-2.496,3.959
			c0,1.282,0.519,2.338,1.556,3.168s2.36,1.244,3.969,1.244c2.374,0,4.576-0.626,6.605-1.88s3.042-2.56,3.042-3.917V109.266z"/>
		<path fill="#1A1026" d="M317.616,88.817h-4.768c-1.814,0-2.949-0.146-3.408-0.439c-0.458-0.291-0.687-0.824-0.687-1.597
			c0-0.678,0.191-1.188,0.575-1.527c0.383-0.339,0.94-0.509,1.669-0.509h9.255c0.505,0,0.897,0.104,1.178,0.311
			c0.28,0.208,0.421,0.492,0.421,0.849v31.875h8.807c0.71,0,1.229,0.156,1.556,0.466c0.327,0.311,0.492,0.807,0.492,1.486
			c0,0.773-0.16,1.305-0.478,1.597c-0.317,0.293-0.916,0.439-1.795,0.439h-20.698c-0.729,0-1.286-0.17-1.669-0.51
			c-0.384-0.339-0.575-0.849-0.575-1.526c0-0.661,0.197-1.15,0.589-1.471c0.392-0.32,0.981-0.481,1.767-0.481h7.769L317.616,88.817
			L317.616,88.817z"/>
		<path fill="#1A1026" d="M354.474,118.177c-1.533,1.395-3.202,2.46-5.007,3.196c-1.804,0.735-3.659,1.103-5.566,1.103
			c-2.787,0-5.035-0.782-6.746-2.347s-2.566-3.602-2.566-6.109c0-2.979,1.137-5.289,3.408-6.929
			c2.271-1.641,5.465-2.461,9.578-2.461c1.084,0,2.178,0.071,3.281,0.212c1.104,0.142,2.234,0.364,3.394,0.666v-0.199
			c0-2.168-0.515-3.771-1.542-4.808c-1.028-1.037-2.627-1.556-4.796-1.556c-1.458,0-3.085,0.396-4.881,1.188
			c-1.794,0.792-2.982,1.188-3.562,1.188c-0.543,0-0.991-0.221-1.346-0.665c-0.355-0.442-0.533-1.013-0.533-1.711
			c0-1.112,1.033-2.055,3.1-2.829c2.064-0.773,4.707-1.16,7.922-1.16c3.291,0,5.779,0.845,7.461,2.532
			c1.683,1.688,2.523,4.181,2.523,7.481v12.812h1.375c1.328,0,2.217,0.142,2.664,0.424c0.449,0.283,0.674,0.792,0.674,1.528
			c0,0.678-0.188,1.187-0.561,1.526c-0.375,0.34-0.936,0.509-1.684,0.509h-4.402c-0.523,0-0.953-0.16-1.291-0.481
			c-0.336-0.32-0.561-0.782-0.672-1.386L354.474,118.177z M354.25,109.266c-1.028-0.338-2.024-0.589-2.986-0.75
			c-0.964-0.159-1.923-0.24-2.875-0.24c-2.88,0-5.151,0.491-6.815,1.472c-1.664,0.98-2.496,2.3-2.496,3.959
			c0,1.282,0.52,2.338,1.557,3.168s2.36,1.244,3.969,1.244c2.375,0,4.575-0.626,6.605-1.88c2.028-1.254,3.042-2.56,3.042-3.917
			V109.266z"/>
		<path fill="#1A1026" d="M370.059,117.78V99.65h-0.533c-1.271,0-2.146-0.151-2.623-0.453c-0.476-0.301-0.714-0.83-0.714-1.583
			c0-0.697,0.197-1.202,0.589-1.513c0.394-0.312,1.029-0.467,1.907-0.467h1.318h2.692c0.506,0,0.896,0.104,1.178,0.311
			c0.28,0.208,0.421,0.491,0.421,0.849v1.923c1.364-1.282,2.716-2.23,4.053-2.842c1.336-0.613,2.724-0.92,4.164-0.92
			c2.823,0,5.045,0.888,6.661,2.659c1.617,1.772,2.427,4.224,2.427,7.354v12.812h1.318c0.935,0,1.607,0.156,2.02,0.467
			c0.41,0.311,0.616,0.806,0.616,1.485c0,0.735-0.22,1.258-0.658,1.568c-0.439,0.312-1.221,0.468-2.344,0.468h-6.197
			c-1.197,0-1.963-0.141-2.299-0.425c-0.338-0.282-0.506-0.819-0.506-1.611c0-0.735,0.197-1.245,0.589-1.528
			c0.394-0.283,1.131-0.424,2.216-0.424h0.981v-11.768c0-2.206-0.495-3.889-1.486-5.049c-0.991-1.159-2.431-1.739-4.319-1.739
			c-1.907,0-3.59,0.651-5.049,1.952c-1.459,1.301-2.188,2.912-2.188,4.836v11.766h0.982c1.121,0,1.879,0.142,2.271,0.424
			c0.393,0.283,0.589,0.792,0.589,1.528c0,0.791-0.169,1.329-0.505,1.61c-0.336,0.284-1.158,0.426-2.469,0.426h-5.104h-1.514
			c-0.77,0-1.344-0.166-1.727-0.496c-0.382-0.33-0.574-0.843-0.574-1.541c0-0.754,0.219-1.269,0.658-1.542
			c0.44-0.273,1.295-0.41,2.567-0.41H370.059z"/>
		<path fill="#1A1026" d="M416.176,97.218c0.916,0,1.585,0.16,2.005,0.481c0.422,0.32,0.633,0.83,0.633,1.526
			c0,0.66-0.197,1.155-0.59,1.485s-0.98,0.495-1.766,0.495h-11.359v9.446c0,3.093,0.396,5.13,1.193,6.11
			c0.793,0.98,2.152,1.47,4.078,1.47c1.702,0,3.74-0.499,6.115-1.498c2.375-1,3.843-1.5,4.403-1.5c0.523,0,0.968,0.189,1.333,0.565
			c0.363,0.378,0.546,0.84,0.546,1.386c0,0.622-0.229,1.164-0.687,1.626c-0.458,0.462-1.24,0.91-2.342,1.343
			c-1.833,0.736-3.484,1.273-4.95,1.613c-1.47,0.339-2.848,0.509-4.137,0.509c-2.188,0-4.024-0.354-5.511-1.061
			c-1.487-0.708-2.595-1.757-3.324-3.154c-0.375-0.659-0.639-1.441-0.799-2.346s-0.239-2.301-0.239-4.187v-0.877v-9.447h-4.767
			c-0.785,0-1.357-0.156-1.713-0.466c-0.354-0.312-0.533-0.815-0.533-1.514c0-0.773,0.244-1.301,0.73-1.584
			c0.486-0.282,1.525-0.424,3.113-0.424h3.17V91.42v-1.499c0-0.811,0.173-1.41,0.518-1.796c0.346-0.386,0.885-0.579,1.614-0.579
			c0.822,0,1.393,0.235,1.711,0.707c0.317,0.472,0.477,1.546,0.477,3.225v5.741H416.176z"/>
		<path fill="#1A1026" d="M444.53,118.177c-1.533,1.395-3.201,2.46-5.006,3.196c-1.804,0.735-3.66,1.103-5.566,1.103
			c-2.787,0-5.035-0.782-6.744-2.347c-1.713-1.565-2.568-3.602-2.568-6.109c0-2.979,1.136-5.289,3.407-6.929
			c2.272-1.641,5.466-2.461,9.578-2.461c1.085,0,2.179,0.071,3.281,0.212c1.104,0.142,2.234,0.364,3.394,0.666v-0.199
			c0-2.168-0.514-3.771-1.543-4.808c-1.027-1.037-2.626-1.556-4.795-1.556c-1.459,0-3.086,0.396-4.881,1.188
			c-1.795,0.792-2.982,1.188-3.561,1.188c-0.543,0-0.992-0.221-1.347-0.665c-0.355-0.442-0.533-1.013-0.533-1.711
			c0-1.112,1.033-2.055,3.101-2.829c2.064-0.773,4.706-1.16,7.923-1.16c3.29,0,5.777,0.845,7.459,2.532
			c1.683,1.688,2.523,4.181,2.523,7.481v12.812h1.375c1.327,0,2.216,0.142,2.664,0.424c0.45,0.283,0.675,0.792,0.675,1.528
			c0,0.678-0.188,1.187-0.561,1.526c-0.375,0.34-0.936,0.509-1.684,0.509h-4.402c-0.524,0-0.955-0.16-1.293-0.481
			c-0.336-0.32-0.559-0.782-0.672-1.386L444.53,118.177z M444.305,109.266c-1.027-0.338-2.023-0.589-2.987-0.75
			c-0.962-0.159-1.921-0.24-2.874-0.24c-2.88,0-5.15,0.491-6.815,1.472c-1.663,0.98-2.497,2.3-2.497,3.959
			c0,1.282,0.52,2.338,1.558,3.168c1.037,0.83,2.36,1.244,3.97,1.244c2.375,0,4.575-0.626,6.604-1.88
			c2.029-1.254,3.043-2.56,3.043-3.917V109.266z"/>
	</g>
	<g>
		<path fill="#1A1026" d="M316.7,167.957h1.233c1.396,0,2.342,0.149,2.84,0.448c0.497,0.298,0.746,0.843,0.746,1.634
			c0,0.676-0.197,1.187-0.588,1.533c-0.392,0.347-0.96,0.521-1.707,0.521h-13.223c-0.899,0-1.525-0.154-1.879-0.463
			c-0.354-0.308-0.531-0.839-0.531-1.591c0-0.695,0.187-1.216,0.559-1.562c0.373-0.348,0.933-0.52,1.678-0.52h6.225l4.647-9.227
			l-10.527-20.799c-1.262,0-2.127-0.154-2.596-0.462c-0.469-0.309-0.703-0.849-0.703-1.62c0-0.675,0.19-1.181,0.573-1.519
			c0.383-0.337,0.956-0.506,1.721-0.506h8.003c1.071,0,1.788,0.149,2.151,0.448c0.363,0.299,0.545,0.824,0.545,1.576
			c0,0.771-0.24,1.311-0.717,1.62c-0.478,0.308-1.358,0.462-2.639,0.462h-1.061l7.773,15.938l7.917-15.938h-1.119
			c-1.319,0-2.228-0.154-2.725-0.462c-0.498-0.309-0.746-0.848-0.746-1.62c0-0.753,0.182-1.278,0.545-1.576
			c0.363-0.299,1.09-0.448,2.18-0.448h7.085c0.783,0,1.362,0.168,1.735,0.506c0.372,0.337,0.559,0.844,0.559,1.519
			c0,0.733-0.21,1.253-0.631,1.562c-0.421,0.309-1.167,0.482-2.237,0.521L316.7,167.957z"/>
		<path fill="#1A1026" d="M336.844,158.47v-5.149c0-0.849,0.157-1.455,0.473-1.822s0.828-0.55,1.535-0.55
			c0.783,0,1.404,0.54,1.863,1.62c0.307,0.656,0.584,1.146,0.832,1.476c0.804,1.042,1.989,1.876,3.557,2.503
			c1.568,0.625,3.299,0.939,5.191,0.939c2.027,0,3.653-0.415,4.877-1.244c1.223-0.83,1.836-1.92,1.836-3.27
			c0-1.368-0.492-2.342-1.479-2.92c-0.984-0.58-2.672-0.869-5.062-0.869h-1.576c-3.9,0-6.875-0.684-8.921-2.053
			c-2.047-1.37-3.069-3.355-3.069-5.96c0-2.545,1-4.521,2.998-5.929s4.805-2.112,8.418-2.112c1.473,0,2.974,0.207,4.504,0.622
			c1.529,0.414,2.332,0.622,2.409,0.622c0.21,0,0.612-0.188,1.204-0.564c0.593-0.376,1.176-0.564,1.75-0.564
			c0.65,0,1.133,0.241,1.448,0.723c0.316,0.482,0.474,1.206,0.474,2.17v3.384c0,1.021-0.154,1.76-0.459,2.213
			c-0.307,0.453-0.794,0.679-1.463,0.679c-0.574,0-1.281-0.491-2.123-1.475c-0.593-0.674-1.08-1.185-1.463-1.532
			c-1.014-0.945-2.094-1.625-3.24-2.039c-1.148-0.415-2.496-0.622-4.045-0.622c-1.797,0-3.246,0.4-4.346,1.2
			c-1.1,0.8-1.648,1.817-1.648,3.052c0,1.215,0.562,2.082,1.692,2.604c1.128,0.521,3.557,0.819,7.285,0.896
			c3.978,0.096,6.885,0.794,8.72,2.097c1.836,1.301,2.754,3.312,2.754,6.031c0,2.604-1.014,4.686-3.041,6.249
			c-2.026,1.562-4.762,2.343-8.203,2.343c-1.09,0-2.305-0.101-3.643-0.305c-1.338-0.202-3.021-0.544-5.049-1.026
			c-0.669,0.442-1.242,0.776-1.721,0.998c-0.478,0.222-0.88,0.333-1.204,0.333c-0.67,0-1.181-0.236-1.534-0.709
			C337.02,160.035,336.844,159.357,336.844,158.47z"/>
		<path fill="#1A1026" d="M386.492,135.445c0.937,0,1.62,0.163,2.051,0.491s0.646,0.849,0.646,1.562
			c0,0.675-0.201,1.181-0.604,1.519c-0.4,0.338-1.004,0.506-1.807,0.506h-11.616v9.661c0,3.162,0.405,5.246,1.219,6.248
			c0.812,1.004,2.204,1.504,4.175,1.504c1.738,0,3.822-0.512,6.252-1.533c2.428-1.021,3.93-1.531,4.504-1.531
			c0.535,0,0.988,0.191,1.361,0.577s0.561,0.857,0.561,1.417c0,0.638-0.234,1.191-0.703,1.664s-1.267,0.93-2.396,1.373
			c-1.874,0.753-3.562,1.301-5.062,1.65c-1.502,0.346-2.912,0.52-4.231,0.52c-2.237,0-4.116-0.361-5.636-1.085
			s-2.654-1.798-3.398-3.226c-0.383-0.675-0.656-1.475-0.818-2.4s-0.243-2.353-0.243-4.281v-0.896v-9.661h-4.876
			c-0.804,0-1.387-0.159-1.75-0.477c-0.364-0.318-0.546-0.834-0.546-1.547c0-0.79,0.248-1.331,0.745-1.62
			c0.498-0.289,1.559-0.434,3.185-0.434h3.241v-5.93v-1.533c0-0.83,0.176-1.441,0.531-1.837c0.354-0.396,0.904-0.593,1.648-0.593
			c0.842,0,1.425,0.241,1.75,0.723c0.324,0.482,0.488,1.582,0.488,3.297v5.872H386.492L386.492,135.445z"/>
		<path fill="#1A1026" d="M399.762,148.461c0.152,2.775,1.084,4.923,2.797,6.436c1.711,1.514,4.049,2.271,7.012,2.271
			c2.238,0,4.676-0.604,7.315-1.809c2.638-1.206,4.235-1.809,4.79-1.809c0.572,0,1.052,0.184,1.434,0.551
			c0.383,0.367,0.574,0.82,0.574,1.359c0,0.559-0.201,1.07-0.603,1.533c-0.402,0.463-1.042,0.916-1.923,1.359
			c-1.912,0.945-3.886,1.668-5.923,2.169c-2.036,0.501-4.06,0.753-6.066,0.753c-4.36,0-7.85-1.268-10.47-3.805
			c-2.619-2.535-3.93-5.896-3.93-10.08c0-4.262,1.387-7.714,4.16-10.356c2.772-2.641,6.385-3.962,10.842-3.962
			c4.035,0,7.381,1.234,10.039,3.703c2.658,2.469,3.987,5.457,3.987,8.968c0,1.079-0.224,1.801-0.674,2.168s-1.669,0.55-3.657,0.55
			h-0.43H399.762L399.762,148.461z M399.906,144.672h18.673c-0.287-2.296-1.238-4.142-2.854-5.54
			c-1.617-1.397-3.6-2.098-5.952-2.098c-2.544,0-4.685,0.676-6.425,2.025C401.608,140.41,400.46,142.28,399.906,144.672z"/>
		<path fill="#1A1026" d="M455.294,144.44c0-2.719-0.243-4.556-0.726-5.51c-0.484-0.954-1.314-1.431-2.491-1.431
			c-1.405,0-2.521,0.617-3.348,1.851c-0.824,1.234-1.238,2.931-1.238,5.091v12.033h0.517c1.167,0,1.946,0.141,2.339,0.42
			c0.391,0.279,0.588,0.806,0.588,1.577c0,0.694-0.162,1.214-0.488,1.562c-0.325,0.347-0.822,0.521-1.491,0.521h-3.644
			c-0.821,0-1.381-0.193-1.677-0.58c-0.297-0.385-0.445-1.215-0.445-2.486v-0.84V144.44v-2.256c0-1.447-0.321-2.589-0.967-3.428
			c-0.646-0.838-1.528-1.258-2.649-1.258c-0.854,0-1.638,0.255-2.35,0.766c-0.711,0.511-1.322,1.268-1.836,2.271v15.938h1.061
			c1.148,0,1.922,0.145,2.324,0.435c0.4,0.288,0.602,0.81,0.602,1.562c0,0.79-0.162,1.333-0.487,1.634
			c-0.325,0.299-0.947,0.449-1.864,0.449h-7.676c-0.75,0-1.303-0.17-1.658-0.506c-0.355-0.34-0.533-0.864-0.533-1.577
			c0-0.771,0.225-1.298,0.674-1.577s1.323-0.42,2.625-0.42h0.573v-18.541h-0.517c-1.339,0-2.251-0.154-2.739-0.462
			c-0.487-0.309-0.731-0.848-0.731-1.62c0-0.675,0.193-1.182,0.577-1.519c0.384-0.338,0.96-0.507,1.729-0.507h4.413
			c0.639,0,1.06,0.111,1.263,0.333c0.204,0.221,0.326,0.689,0.364,1.402c0.78-0.848,1.617-1.475,2.511-1.88
			c0.895-0.405,1.902-0.607,3.024-0.607c1.331,0,2.429,0.294,3.296,0.882c0.864,0.588,1.507,1.48,1.926,2.676
			c0.803-1.215,1.73-2.112,2.781-2.69c1.052-0.579,2.257-0.868,3.614-0.868c2.466,0,4.269,0.81,5.407,2.43
			c1.137,1.62,1.706,4.243,1.706,7.868v13.103h0.459c1.185,0,1.979,0.145,2.381,0.435c0.401,0.288,0.602,0.81,0.602,1.562
			c0,0.694-0.172,1.214-0.517,1.562c-0.344,0.347-0.85,0.521-1.52,0.521h-3.498c-0.774,0-1.346-0.232-1.715-0.695
			c-0.368-0.463-0.553-1.195-0.553-2.197V144.44H455.294z"/>
		<path fill="#1A1026" d="M467.456,158.47v-5.149c0-0.849,0.157-1.455,0.473-1.822c0.316-0.367,0.826-0.55,1.535-0.55
			c0.783,0,1.406,0.54,1.864,1.62c0.306,0.656,0.584,1.146,0.831,1.476c0.804,1.042,1.99,1.876,3.557,2.503
			c1.569,0.625,3.299,0.939,5.192,0.939c2.027,0,3.652-0.415,4.876-1.244c1.225-0.83,1.836-1.92,1.836-3.27
			c0-1.368-0.492-2.342-1.477-2.92c-0.984-0.58-2.673-0.869-5.062-0.869h-1.578c-3.9,0-6.874-0.684-8.921-2.053
			c-2.046-1.37-3.069-3.355-3.069-5.96c0-2.545,0.999-4.521,2.998-5.929c1.998-1.408,4.805-2.112,8.419-2.112
			c1.472,0,2.973,0.207,4.503,0.622c1.529,0.414,2.332,0.622,2.409,0.622c0.21,0,0.612-0.188,1.204-0.564
			c0.594-0.376,1.177-0.564,1.75-0.564c0.65,0,1.134,0.241,1.449,0.723c0.314,0.482,0.472,1.206,0.472,2.17v3.384
			c0,1.021-0.152,1.76-0.458,2.213s-0.794,0.679-1.463,0.679c-0.574,0-1.281-0.491-2.123-1.475c-0.593-0.674-1.08-1.185-1.463-1.532
			c-1.014-0.945-2.094-1.625-3.241-2.039c-1.147-0.415-2.495-0.622-4.044-0.622c-1.799,0-3.246,0.4-4.346,1.2
			c-1.1,0.8-1.648,1.817-1.648,3.052c0,1.215,0.563,2.082,1.691,2.604c1.129,0.521,3.557,0.819,7.286,0.896
			c3.977,0.096,6.884,0.794,8.72,2.097c1.835,1.301,2.753,3.312,2.753,6.031c0,2.604-1.013,4.686-3.041,6.249
			c-2.026,1.562-4.761,2.343-8.202,2.343c-1.09,0-2.305-0.101-3.644-0.305c-1.339-0.202-3.021-0.544-5.048-1.026
			c-0.67,0.442-1.242,0.776-1.721,0.998s-0.88,0.333-1.205,0.333c-0.669,0-1.181-0.236-1.535-0.709
			C467.633,160.035,467.456,159.357,467.456,158.47z"/>
	</g>
</g>
</svg>
